<svg xmlns="http://www.w3.org/2000/svg" width="54" height="54" viewBox="0 0 54 54"><g transform="translate(0.026 0.263)"><g transform="translate(53.974 53.737) rotate(-180)" fill="#e9e6f6" stroke="rgba(255,255,255,0.1)" stroke-width="1" opacity="0.15"><rect width="54" height="54" rx="10" stroke="none"/><rect x="0.5" y="0.5" width="53" height="53" rx="9.5" fill="none"/></g><g transform="translate(20.498 15.331)"><path d="M1,15.929a1,1,0,0,1-1-1V1A1,1,0,0,1,2.005,1V14.927a1,1,0,0,1-1,1Z" transform="translate(1.418 22.527) rotate(-135)" fill="#fff"/><path d="M14.927,2.005H1A1,1,0,0,1,1,0H14.927a1,1,0,0,1,0,2.005Z" transform="translate(11.264 12.682) rotate(-135)" fill="#fff"/></g></g></svg>