<svg xmlns="http://www.w3.org/2000/svg" width="53" height="54" viewBox="0 0 53 54"><g transform="translate(-0.5 0.263)"><g transform="translate(0.5 -0.263)" fill="#e9e6f6" stroke="rgba(255,255,255,0.1)" stroke-width="1" opacity="0.15"><rect width="53" height="54" rx="10" stroke="none"/><rect x="0.5" y="0.5" width="52" height="53" rx="9.5" fill="none"/></g><g transform="translate(20.294 15.331)"><path d="M1,0A1,1,0,0,0,0,1V14.927a1,1,0,0,0,2.005,0V1A1,1,0,0,0,1,0Z" transform="translate(0 11.263) rotate(-45)" fill="#fff"/><path d="M14.927,0H1A1,1,0,0,0,1,2.005H14.927a1,1,0,0,0,0-2.005Z" transform="translate(0 11.264) rotate(-45)" fill="#fff"/></g></g></svg>