<svg xmlns="http://www.w3.org/2000/svg" width="12.524" height="12.398" viewBox="0 0 12.524 12.398"><g transform="translate(0.563 0.5)"><path d="M.551,11.395a.557.557,0,0,1-.394-.95L10.441.16a.557.557,0,0,1,.787.787L.944,11.232a.555.555,0,0,1-.394.163Z" transform="translate(0.006 0.003)" stroke="#000" stroke-width="1"/><path d="M10.837,11.395a.555.555,0,0,1-.394-.163L.16.947A.557.557,0,1,1,.947.16L11.23,10.445a.557.557,0,0,1-.394.95Z" transform="translate(0.005 0.003)" stroke="#000" stroke-width="1"/></g></svg>