<svg xmlns="http://www.w3.org/2000/svg" width="14.151" height="9.906" viewBox="0 0 14.151 9.906"><g transform="translate(-2256.467 -13812)"><path d="M127.059,123.2A1.059,1.059,0,0,0,126,124.261v7.783a1.059,1.059,0,0,0,1.061,1.061h12.029a1.059,1.059,0,0,0,1.061-1.061v-7.783a1.059,1.059,0,0,0-1.061-1.061Zm.84,1.587h0a.354.354,0,0,1,.293.105l4.378,4.3a.715.715,0,0,0,.995,0l4.389-4.3h0a.354.354,0,1,1,.5.5l-2.869,2.814,2.863,2.692h0a.354.354,0,0,1-.487.514l-2.88-2.714-1.017.995a1.43,1.43,0,0,1-1.99,0l-1.006-.989-2.88,2.709h0a.354.354,0,0,1-.487-.514l2.858-2.692-2.863-2.814a.354.354,0,0,1,.2-.608Z" transform="translate(2130.469 13688.8)" fill="#fff"/></g></svg>