<svg xmlns="http://www.w3.org/2000/svg" width="21.118" height="27.189" viewBox="0 0 21.118 27.189"><path d="M18.572,3.181,5.595,16.158a.617.617,0,0,0,0,.874l3.452,3.452a.617.617,0,0,0,.874,0L26.349,4.055A.618.618,0,0,0,25.912,3h-6.9A.617.617,0,0,0,18.572,3.181Zm7.777,13.233L15.663,27.1l-3.889-3.889a.617.617,0,0,1,0-.874l6.8-6.8a.617.617,0,0,1,.437-.181h6.9A.618.618,0,0,1,26.349,16.414Zm0,12.721-4.507-4.507L15.663,27.1l2.909,2.909a.617.617,0,0,0,.437.181h6.9A.618.618,0,0,0,26.349,29.134Z" transform="translate(-5.414 -3)" fill="#f3f3f3"/></svg>