<svg xmlns="http://www.w3.org/2000/svg" width="30.159" height="27.189" viewBox="0 0 30.159 27.189"><path d="M12.65,4.182a4.169,4.169,0,0,0-2.111.535C8.568,5.855,7.818,8.629,8.215,12.082,5.027,13.465,3,15.5,3,17.776s2.027,4.312,5.215,5.694c-.4,3.453.353,6.227,2.324,7.365a4.163,4.163,0,0,0,2.111.535,9.677,9.677,0,0,0,5.429-2.231,9.684,9.684,0,0,0,5.432,2.231,4.169,4.169,0,0,0,2.111-.535c1.971-1.138,2.722-3.912,2.324-7.365,3.188-1.382,5.213-3.419,5.213-5.694s-2.027-4.312-5.215-5.694c.4-3.453-.353-6.227-2.324-7.366a4.15,4.15,0,0,0-2.111-.535,9.677,9.677,0,0,0-5.429,2.231A9.678,9.678,0,0,0,12.65,4.182Zm0,2.2a7.164,7.164,0,0,1,3.691,1.49,24.625,24.625,0,0,0-2.422,2.663,24.653,24.653,0,0,0-3.569.778c-.006-.077-.02-.157-.025-.233-.134-2.237.357-3.9,1.313-4.457A1.969,1.969,0,0,1,12.65,6.381Zm10.858,0a1.972,1.972,0,0,1,1.011.241c.956.552,1.448,2.22,1.313,4.457,0,.076-.019.156-.025.233a24.656,24.656,0,0,0-3.571-.778,24.615,24.615,0,0,0-2.42-2.663A7.167,7.167,0,0,1,23.508,6.381ZM18.079,9.267c.341.31.679.638,1.021,1-.339-.011-.676-.027-1.021-.027s-.68.016-1.018.027C17.4,9.905,17.739,9.577,18.079,9.267Zm0,3.169a27.494,27.494,0,0,1,2.965.16,26.913,26.913,0,0,1,1.662,2.511,27.328,27.328,0,0,1,1.347,2.67,27.325,27.325,0,0,1-1.347,2.673,26.892,26.892,0,0,1-1.657,2.5,27.349,27.349,0,0,1-2.97.167,27.494,27.494,0,0,1-2.965-.16,26.882,26.882,0,0,1-1.662-2.508,27.353,27.353,0,0,1-1.347-2.673,27.3,27.3,0,0,1,1.347-2.67,26.948,26.948,0,0,1,1.657-2.5A27.349,27.349,0,0,1,18.079,12.436Zm5.964.68c.5.12.978.25,1.428.4-.1.461-.227.931-.368,1.406-.162-.3-.318-.608-.493-.911S24.231,13.415,24.044,13.115Zm-11.931,0c-.187.3-.385.578-.565.888s-.332.607-.493.911c-.142-.476-.268-.947-.371-1.409C11.143,13.363,11.621,13.235,12.113,13.118Zm-3.5,1.2a24.629,24.629,0,0,0,1.1,3.458,24.658,24.658,0,0,0-1.1,3.451C6.43,20.168,5.2,18.852,5.2,17.776c0-1.1,1.2-2.363,3.2-3.365C8.468,14.377,8.546,14.349,8.616,14.316Zm18.925.012c2.188,1.057,3.419,2.372,3.419,3.448,0,1.1-1.2,2.363-3.2,3.365-.068.034-.146.062-.216.1a24.631,24.631,0,0,0-1.1-3.461A24.646,24.646,0,0,0,27.541,14.328Zm-9.461.935a2.513,2.513,0,1,0,2.513,2.513A2.513,2.513,0,0,0,18.079,15.263Zm-7.024,5.373c.162.3.321.608.5.911s.377.591.564.891c-.5-.12-.978-.25-1.428-.4C10.789,21.58,10.914,21.111,11.055,20.636Zm14.049,0c.141.476.269.945.371,1.406-.459.145-.937.273-1.429.39.187-.3.385-.578.565-.888S24.942,20.941,25.1,20.638Zm-14.753,3.6a24.646,24.646,0,0,0,3.571.778,24.633,24.633,0,0,0,2.42,2.665,7.166,7.166,0,0,1-3.691,1.49,1.973,1.973,0,0,1-1.011-.243c-.956-.552-1.448-2.218-1.313-4.455C10.331,24.4,10.345,24.319,10.351,24.241Zm15.457,0c.006.078.02.159.025.236.134,2.237-.357,3.9-1.313,4.455a1.969,1.969,0,0,1-1.011.243,7.165,7.165,0,0,1-3.691-1.49,24.623,24.623,0,0,0,2.422-2.665A24.65,24.65,0,0,0,25.808,24.241Zm-8.75,1.048c.339.011.676.027,1.021.027s.682-.016,1.021-.027c-.342.359-.68.686-1.021,1C17.739,25.975,17.4,25.648,17.058,25.289Z" transform="translate(-3 -4.182)" fill="#f3f3f3"/></svg>