<svg xmlns="http://www.w3.org/2000/svg" width="29.909" height="27.189" viewBox="0 0 29.909 27.189"><path d="M32.608,17.408,26.28,6.182a2.345,2.345,0,0,0-2-1.182H11.632a2.345,2.345,0,0,0-2,1.182L3.3,17.408a2.493,2.493,0,0,0,0,2.374L9.627,31.008a2.345,2.345,0,0,0,2,1.182H24.276a2.351,2.351,0,0,0,2-1.182l6.327-11.226A2.493,2.493,0,0,0,32.608,17.408Zm-8.8,7.984H21.735a.277.277,0,0,1-.239-.149l-3.51-6.513c-.019-.035-.045-.035-.064,0L14.4,25.243a.269.269,0,0,1-.226.149H12.1a.3.3,0,0,1-.234-.422L15.3,18.595l-3.431-6.388a.294.294,0,0,1,.181-.409h2.124a.283.283,0,0,1,.228.141l3.521,6.516c.019.035.045.035.064,0l3.507-6.516a.283.283,0,0,1,.242-.141h2.074a.293.293,0,0,1,.231.409l-3.43,6.388,3.43,6.375A.3.3,0,0,1,23.809,25.392Z" transform="translate(-2.999 -5)" fill="#f3f3f3"/></svg>