<svg xmlns="http://www.w3.org/2000/svg" width="22.825" height="26.563" viewBox="0 0 22.825 26.563"><path d="M27.826,20.489A19.074,19.074,0,0,1,26.1,23.71c-1.121,1.705-2.7,3.835-4.656,3.848-1.739.016-2.188-1.135-4.55-1.114s-2.851,1.137-4.593,1.119c-1.956-.018-3.451-1.935-4.572-3.638C4.6,19.149,4.265,13.551,6.2,10.573a6.938,6.938,0,0,1,5.576-3.352c2.075,0,3.379,1.139,5.093,1.139,1.665,0,2.678-1.141,5.078-1.141a6.777,6.777,0,0,1,5.1,2.693A5.841,5.841,0,0,0,27.826,20.489Zm-7.7-15.176A5.819,5.819,0,0,0,21.422,1a6.3,6.3,0,0,0-4.06,2.184A5.413,5.413,0,0,0,16.033,7.39,5.294,5.294,0,0,0,20.127,5.313Z" transform="translate(-5 -1)" fill="#f3f3f3"/></svg>