<svg xmlns="http://www.w3.org/2000/svg" width="23.259" height="28" viewBox="0 0 23.259 28"><path d="M10,1.516a.529.529,0,0,0-.419.834l1.563,2.259A7.4,7.4,0,0,0,8.314,9.428H22.945a7.4,7.4,0,0,0-2.833-4.819L21.676,2.35a.528.528,0,1,0-.869-.6l-1.575,2.28a7.343,7.343,0,0,0-7.2,0l-1.576-2.28A.529.529,0,0,0,10,1.516ZM12.458,5.2A1.057,1.057,0,1,1,11.4,6.257,1.058,1.058,0,0,1,12.458,5.2Zm6.343,0a1.057,1.057,0,1,1-1.057,1.057A1.058,1.058,0,0,1,18.8,5.2ZM5.057,11.543A1.058,1.058,0,0,0,4,12.6v8.458a1.057,1.057,0,0,0,2.114,0V12.6A1.058,1.058,0,0,0,5.057,11.543Zm3.172,0V22.115a2.114,2.114,0,0,0,2.114,2.114v3.7a1.586,1.586,0,1,0,3.172,0v-3.7h4.229v3.7a1.586,1.586,0,1,0,3.172,0v-3.7a2.114,2.114,0,0,0,2.114-2.114V11.543Zm17.973,0A1.058,1.058,0,0,0,25.144,12.6v8.458a1.057,1.057,0,1,0,2.114,0V12.6A1.058,1.058,0,0,0,26.2,11.543Z" transform="translate(-4 -1.516)" fill="#f3f3f3"/></svg>