<svg xmlns="http://www.w3.org/2000/svg" width="34.55" height="42.726" viewBox="0 0 34.55 42.726"><g transform="translate(-427.333 -5233.651)"><path d="M133.878,69.471a4.2,4.2,0,0,1-.306.384q-13.637,13.619-27.278,27.235c-.106.106-.218.207-.3.286L99.4,90.794c.082-.086.191-.206.306-.321l20.734-20.667c.108-.107.208-.223.311-.334Z" transform="translate(327.934 5164.18)" fill="#fff"/><path d="M217.4,316.51c.491-.485.967-.952,1.439-1.422q4.9-4.877,9.785-9.761a.977.977,0,0,1,.766-.307q6.1.012,12.2.005h.444l-11.466,11.442L242.087,327.9l-.071.125c-.112.009-.224.025-.336.025q-6.207,0-12.413-.007a.791.791,0,0,1-.511-.183q-5.628-5.592-11.236-11.2C217.491,316.628,217.468,316.593,217.4,316.51Z" transform="translate(219.796 4948.326)" fill="#fff"/></g></svg>