<svg xmlns="http://www.w3.org/2000/svg" width="36.131" height="42.726" viewBox="0 0 36.131 42.726"><path d="M267.057,320.269h-4.025v.571c0,1.807.007,3.614,0,5.421a2.684,2.684,0,0,1-1.864,2.674,2.5,2.5,0,0,1-3.052-2.031,6.29,6.29,0,0,1-.082-1.015c-.008-1.855,0-3.711,0-5.639h-2.2a2.249,2.249,0,0,1-2.5-2.522V300.662h23.414v.522q0,8.351,0,16.7a2.21,2.21,0,0,1-2.312,2.359c-.764,0-1.527,0-2.36,0v.54c0,1.823.007,3.646,0,5.47a2.809,2.809,0,0,1-1.88,2.678,2.466,2.466,0,0,1-3.081-2.212c-.086-1.949-.045-3.9-.058-5.857C267.056,320.674,267.057,320.482,267.057,320.269Z" transform="translate(-246.975 -286.291)" fill="#fff"/><path d="M259.88,225.613c-.637-1.111-1.255-2.173-1.85-3.248-.07-.127-.01-.325-.011-.491.128.092.3.155.376.279.644,1.085,1.269,2.18,1.91,3.291a12.666,12.666,0,0,1,10.2,0l1.8-3.085c.016-.028.021-.067.043-.087.15-.132.3-.26.456-.39a1.658,1.658,0,0,1-.077.576c-.575,1.048-1.176,2.083-1.789,3.159,3.68,1.979,5.875,4.938,6.1,9.246H253.786C253.993,230.578,256.174,227.621,259.88,225.613Zm1.129,4.358a1.183,1.183,0,0,0-1.088-1.1,1.2,1.2,0,0,0-1.151,1.16,1.163,1.163,0,0,0,1.148,1.04A1.138,1.138,0,0,0,261.01,229.971Zm9.907,1.1a1.141,1.141,0,0,0,1.124-1.056,1.115,1.115,0,1,0-2.229-.023A1.139,1.139,0,0,0,270.917,231.068Z" transform="translate(-247.342 -221.874)" fill="#fff"/><path d="M218.474,306.6c0-1.669-.03-3.338.017-5.006a4.131,4.131,0,0,1,.367-1.632,2.3,2.3,0,0,1,2.582-1.314,2.623,2.623,0,0,1,1.978,2.1,6.914,6.914,0,0,1,.084,1.066q.01,4.835,0,9.67a3.175,3.175,0,0,1-.711,2.209,2.324,2.324,0,0,1-3.9-.425,4.073,4.073,0,0,1-.408-1.67c-.052-1.665-.019-3.334-.019-5Z" transform="translate(-218.454 -284.618)" fill="#fff"/><path d="M393.9,306.6c0,1.631-.006,3.263,0,4.894a2.92,2.92,0,0,1-1.321,2.706,2.435,2.435,0,0,1-3.639-1.815,5.5,5.5,0,0,1-.08-.92c-.006-3.285-.026-6.571.017-9.856a4.291,4.291,0,0,1,.456-1.8,2.3,2.3,0,0,1,2.552-1.164,2.513,2.513,0,0,1,1.917,2.143c.089,1.319.067,2.645.085,3.969.009.616,0,1.232,0,1.847Z" transform="translate(-357.773 -284.597)" fill="#fff"/></svg>