<svg xmlns="http://www.w3.org/2000/svg" width="35.72" height="42.726" viewBox="0 0 35.72 42.726"><path d="M132.818,245.8h-.828a.48.48,0,0,0-.1-.035,5.542,5.542,0,0,1-2.522-.986,12.131,12.131,0,0,1-2.884-2.876,29.952,29.952,0,0,1-3.686-6.651,24.274,24.274,0,0,1-1.813-7.369,20.109,20.109,0,0,1,.289-5.436,13.36,13.36,0,0,1,2.809-6.11,9,9,0,0,1,4.384-3,10.116,10.116,0,0,1,5.159-.085c1.207.266,2.4.595,3.594.914a6.231,6.231,0,0,0,3.532.105c1.036-.32,2.072-.639,3.113-.943a11.358,11.358,0,0,1,5.152-.421,10.292,10.292,0,0,1,6.4,4.093c-.066.06-.127.111-.184.166-.6.57-1.224,1.115-1.791,1.716a9.245,9.245,0,0,0-2.543,7.66,9.56,9.56,0,0,0,1.711,4.521,8.446,8.446,0,0,0,2.882,2.725c.366.2.757.347,1.144.521l-.024.075a25.608,25.608,0,0,1-4.638,8.343,9.618,9.618,0,0,1-2.567,2.262,4.846,4.846,0,0,1-3.4.647,18.243,18.243,0,0,1-2.9-.809,12.224,12.224,0,0,0-3.055-.719,8.088,8.088,0,0,0-3.372.495c-.853.3-1.695.629-2.553.91A12.654,12.654,0,0,1,132.818,245.8Z" transform="translate(-120.917 -203.076)" fill="#fff"/><path d="M332.79,105.794c.039-.507.056-.97.112-1.428a12.107,12.107,0,0,1,1.16-3.934,8.529,8.529,0,0,1,4.688-4.245c.79-.314,1.61-.554,2.437-.834a3.26,3.26,0,0,1,.188,1.242,10.078,10.078,0,0,1-2.081,5.7,9.732,9.732,0,0,1-2.947,2.667,6.238,6.238,0,0,1-2.211.663C333.707,105.692,333.275,105.735,332.79,105.794Z" transform="translate(-315.286 -95.353)" fill="#fff"/></svg>