<svg xmlns="http://www.w3.org/2000/svg" width="46.884" height="42.726" viewBox="0 0 46.884 42.726"><path d="M157.987,231.9a25.455,25.455,0,0,1,.869,8.465c-.412,4.176-3.418,6.255-7.363,4.9a14.9,14.9,0,0,1-3.4-1.726c-1.364-.916-2.6-2.018-3.87-3.018-1.3,1.018-2.538,2.123-3.911,3.031A15.468,15.468,0,0,1,136.8,245.3c-3.7,1.256-6.558-.62-7.179-4.5a21.29,21.29,0,0,1,.571-7.939c.062-.289.115-.58.18-.91a35.962,35.962,0,0,1-3.952-1.631,18.733,18.733,0,0,1-3.87-2.675c-2.353-2.231-2.3-5.161-.017-7.482a16.206,16.206,0,0,1,6.508-3.707c.385-.133.765-.281,1.137-.417a40.333,40.333,0,0,1-.6-4.383,17.977,17.977,0,0,1,.321-4.579c.772-3.355,3.371-4.73,6.7-3.755a18.176,18.176,0,0,1,6.748,4.192c.278.243.549.494.73.657,1.711-1.268,3.26-2.6,4.992-3.637a11.528,11.528,0,0,1,4.075-1.509c3.047-.458,5.4,1.757,5.682,5.179a25.092,25.092,0,0,1,0,3.94c-.095,1.266-.373,2.518-.578,3.832a29.927,29.927,0,0,1,3.578,1.472,19.972,19.972,0,0,1,4.17,2.831c2.311,2.231,2.2,5.094-.04,7.4a16.464,16.464,0,0,1-6.7,3.808C158.874,231.613,158.484,231.737,157.987,231.9ZM144.4,216.146c-1.289.058-2.46.073-3.621.188a1.429,1.429,0,0,0-.966.55c-1.371,2.243-2.712,4.506-3.994,6.8a1.613,1.613,0,0,0-.009,1.327c1.065,1.986,2.2,3.938,3.357,5.869a1.348,1.348,0,0,0,.958.571q4.061.07,8.123,0a1.351,1.351,0,0,0,.962-.571c1.182-1.963,2.328-3.95,3.421-5.965a1.51,1.51,0,0,0,0-1.22c-.846-1.635-1.832-3.2-2.657-4.844-.914-1.822-2.1-3.034-4.342-2.65A5.117,5.117,0,0,1,144.4,216.146Zm1.357,22.8a16.429,16.429,0,0,0,6.576,4.526c2.312.684,3.856-.163,4.385-2.508.655-2.906.035-5.714-.687-8.454-1.894.276-3.673.524-5.448.806a1.283,1.283,0,0,0-.757.383C148.451,235.427,147.11,237.186,145.755,238.941Zm-13.337-6.459c-.143.539-.32,1.071-.424,1.617-.462,2.443-.907,4.894-.1,7.35a2.825,2.825,0,0,0,3.763,2.066c2.878-.739,5.01-2.616,7.035-4.56-1.364-1.753-2.664-3.45-4-5.115a1.613,1.613,0,0,0-.907-.529C136.048,233.011,134.305,232.768,132.419,232.483Zm10.3-22.776c-2.082-1.977-4.222-3.85-7.1-4.582a2.79,2.79,0,0,0-3.633,1.822c-1.016,2.85-.471,5.665.225,8.442,2.221-.318,4.3-.606,6.378-.926a1.139,1.139,0,0,0,.632-.4C140.384,212.644,141.524,211.2,142.721,209.706Zm2.92.039c.871,1.051,1.744,1.952,2.433,2.977a3.8,3.8,0,0,0,3.244,1.951,42.394,42.394,0,0,1,4.9.735,19.676,19.676,0,0,0,.6-7.013c-.393-2.927-2.164-4.037-4.941-2.994A19,19,0,0,0,145.641,209.746Zm12.077,8.283c-.8,2.043-1.552,3.921-2.276,5.808a1.3,1.3,0,0,0-.1.826c.672,1.74,1.389,3.462,2.112,5.237a4.9,4.9,0,0,0,.871-.252,45.053,45.053,0,0,0,5.653-2.948c2.225-1.553,2.2-3.558.221-5.39A15.746,15.746,0,0,0,157.719,218.029Zm-26.785,11.863c.731-1.786,1.417-3.445,2.082-5.113a1.117,1.117,0,0,0,.075-.731c-.764-1.98-1.561-3.947-2.347-5.911a14.617,14.617,0,0,0-6.41,3.108c-2.032,1.89-1.989,3.746.143,5.51A17.474,17.474,0,0,0,130.933,229.892Zm10.076,3.768,3.192,3.848,3.141-3.848Zm13.057-11.736,1.63-4.511-4.764-.833Zm-16.628-5.345-4.754.877,1.647,4.444Zm-4.474,13.906,3.923.678-2.528-4.423Zm18.565.705,3.953-.713-1.42-3.732Zm-9.825-17.023h5.012l-2.5-2.954Z" transform="translate(-120.797 -202.957)" fill="#fff"/><path d="M213.325,280.593a5.875,5.875,0,1,1-5.887-5.9A5.965,5.965,0,0,1,213.325,280.593Zm-9.406-.1a3.532,3.532,0,1,0,3.642-3.453A3.49,3.49,0,0,0,203.918,280.494Z" transform="translate(-184.01 -259.188)" fill="#fff"/></svg>