<svg xmlns="http://www.w3.org/2000/svg" width="45.512" height="42.726" viewBox="0 0 45.512 42.726"><path d="M183.9,258.663h29.229v4.531H196.117a2.2,2.2,0,0,0-2.509,2.524q0,8.128,0,16.257a2.123,2.123,0,0,0,1.523,2.233,3.272,3.272,0,0,0,.84.084c.769.011,1.539,0,2.392,0,0,.458,0,.875,0,1.292,0,.3,0,.6.005.9a1.355,1.355,0,0,0,.8,1.289,1.392,1.392,0,0,0,1.583-.232c.542-.457,1.066-.934,1.6-1.4.6-.532,1.2-1.072,1.811-1.59a.931.931,0,0,1,.529-.242c2.741-.015,5.483-.009,8.224-.007a1.485,1.485,0,0,1,.213.035v6.426H191.206a6.243,6.243,0,0,1,.348-.827.669.669,0,0,1,.4-.256c.382-.088.775-.127,1.162-.2a.66.66,0,0,0,.593-.683q.053-1.866.09-3.732a.67.67,0,0,0-.595-.729c-.353-.076-.7-.18-1.06-.222-.3-.036-.381-.221-.516-.45a1.394,1.394,0,0,1,.261-1.835c.6-.684.547-.888-.092-1.559q-1.075-1.13-2.153-2.257a.77.77,0,0,0-1.2-.146c-.066.043-.128.091-.194.135-.949.634-.951.638-1.993.117a.5.5,0,0,1-.235-.3c-.079-.368-.125-.744-.175-1.118a.817.817,0,0,0-.937-.833c-.328-.006-.657,0-1.016,0Z" transform="translate(-173.575 -253.354)" fill="#fff"/><path d="M277.127,327.869c0-.923,0-1.74,0-2.557,0-.729-.264-.986-1-.988-.961,0-1.922,0-2.883,0-.659,0-.87-.205-.874-.879-.007-1.433,0-2.866,0-4.3q0-5.977,0-11.953c0-.913.13-1.043,1.038-1.044l21.879-.012c.957,0,1.1.142,1.1,1.089q0,8.008,0,16.016c0,.948-.138,1.083-1.1,1.083q-6.734,0-13.468-.006a1.521,1.521,0,0,0-1.107.411c-1.048.954-2.118,1.883-3.182,2.82C277.427,327.639,277.316,327.72,277.127,327.869Zm4.706-6.063c-.008.481.15.742.527.837a.675.675,0,0,0,.826-.375,1.75,1.75,0,0,0,.115-.357q1.364-4.9,2.727-9.8c.274-.982.556-1.963.823-2.947.089-.329.129-.707-.212-.891a.992.992,0,0,0-.777-.064,1.037,1.037,0,0,0-.416.63q-1.578,5.6-3.126,11.2C282.15,320.665,281.978,321.284,281.834,321.806Zm-2.442-6.489a6.424,6.424,0,0,0,.548-.428c.563-.548,1.126-1.1,1.668-1.667a.7.7,0,0,0,0-1.048.7.7,0,0,0-1.016.028c-.9.881-1.784,1.774-2.668,2.668a.636.636,0,0,0-.079.935q1.384,1.448,2.834,2.833a.644.644,0,0,0,.939-.055.659.659,0,0,0,.065-.936,4.3,4.3,0,0,0-.418-.446C280.671,316.6,280.074,316,279.392,315.317Zm9.938.062c-.744.735-1.431,1.4-2.108,2.083-.4.4-.432.795-.116,1.118a.754.754,0,0,0,1.126-.088q1.244-1.229,2.474-2.471a.748.748,0,0,0,.005-1.255q-1.212-1.227-2.437-2.441c-.422-.42-.824-.464-1.153-.138s-.3.727.126,1.149C287.916,314,288.594,314.658,289.33,315.379Z" transform="translate(-250.869 -294.832)" fill="#fff"/><path d="M119.185,410c-.261.359-.484.682-.724.992a.847.847,0,0,0-.084.927c.236.564.467,1.131.659,1.711a.848.848,0,0,0,.69.625c.384.078.768.153,1.18.235,0,.422.007.827,0,1.232s-.036.816-.058,1.283c-.349.061-.7.147-1.048.176a.994.994,0,0,0-.927.734,12.189,12.189,0,0,1-.645,1.463.957.957,0,0,0,.066,1.137c.209.274.387.573.615.914l-1.828,1.743c-.32-.233-.641-.453-.948-.692a.9.9,0,0,0-1.012-.093,13.876,13.876,0,0,1-1.621.629.88.88,0,0,0-.685.743c-.073.383-.154.764-.234,1.162h-2.511c-.06-.383-.138-.765-.176-1.151a.886.886,0,0,0-.644-.829,15.134,15.134,0,0,1-1.59-.707.9.9,0,0,0-1.014.043c-.319.226-.649.436-.872.586l-1.9-1.666c.284-.395.513-.727.757-1.048a.864.864,0,0,0,.089-.967,14.353,14.353,0,0,1-.6-1.58.953.953,0,0,0-.8-.751c-.377-.068-.882-.086-1.075-.33-.181-.228-.023-.722-.02-1.1,0-.422,0-.845,0-1.293.462-.081.875-.164,1.29-.222a.819.819,0,0,0,.677-.575c.233-.565.466-1.131.738-1.677a.83.83,0,0,0-.043-.926c-.223-.323-.434-.654-.68-1.028l1.828-1.741c.327.239.647.461.953.7a.881.881,0,0,0,1.008.091,13.882,13.882,0,0,1,1.575-.619.974.974,0,0,0,.736-.813c.237-1.135.254-1.134,1.444-1.13.408,0,.931-.129,1.191.073.241.187.22.734.276,1.128a.972.972,0,0,0,.721.834,12.428,12.428,0,0,1,1.5.666.91.91,0,0,0,1.053-.053c.305-.219.623-.42.972-.652Zm-7.632,10.564a5,5,0,1,0-4.988-4.983A4.99,4.99,0,0,0,111.554,420.568Z" transform="translate(-102.15 -382.221)" fill="#fff"/><path d="M212.917,220.44H183.65a19.225,19.225,0,0,1,.016-2.178,1.888,1.888,0,0,1,1.943-1.644q12.665,0,25.33,0a1.924,1.924,0,0,1,1.972,1.827C212.947,219.088,212.917,219.735,212.917,220.44Zm-14.644-1.177c.817,0,1.634,0,2.451,0,.571,0,.887-.283.876-.753-.011-.454-.3-.686-.876-.687q-2.451,0-4.9,0c-.585,0-.862.226-.874.688s.3.749.874.753C196.639,219.268,197.456,219.264,198.273,219.263Z" transform="translate(-173.337 -216.616)" fill="#fff"/><path d="M224.5,524.731a20.34,20.34,0,0,1-.133,2.365,1.8,1.8,0,0,1-1.8,1.452q-12.762.008-25.525,0c-.062,0-.124-.01-.187-.016-.087-.459.193-.577.54-.766a1.2,1.2,0,0,1,1.62.229,2.664,2.664,0,0,0,.42.3.689.689,0,0,0,.945-.065c.894-.843,1.8-1.673,2.658-2.553.2-.209.224-.594.348-.952Zm-14.686,1.253c-.833,0-1.666,0-2.5,0-.54,0-.814.242-.822.692s.291.743.831.745q2.5.008,5,0c.533,0,.838-.293.824-.753-.013-.443-.294-.68-.832-.683C211.48,525.98,210.647,525.984,209.814,525.984Z" transform="translate(-184.883 -485.826)" fill="#fff"/><path d="M152.084,459.674a3.542,3.542,0,0,1-3.557-3.522,3.593,3.593,0,0,1,3.535-3.566,3.557,3.557,0,0,1,3.539,3.544A3.505,3.505,0,0,1,152.084,459.674Z" transform="translate(-142.671 -422.792)" fill="#fff"/></svg>