<svg xmlns="http://www.w3.org/2000/svg" width="52.261" height="42.726" viewBox="0 0 52.261 42.726"><g transform="translate(-842.937 -5233.651)"><path d="M139,295.993c.221.006.441.019.662.019H160.08v22.408c-.138.012-.283.036-.428.036q-10.173,0-20.347,0c-.1,0-.2-.012-.3-.018Zm10.574,4.966a6.292,6.292,0,0,0-.043,12.583,6.292,6.292,0,0,0,.043-12.583Z" transform="translate(703.937 4951.879)" fill="#fff"/><path d="M139,253.51a2.376,2.376,0,0,1,1.668-1.557,2.938,2.938,0,0,1,.6-.065q8.263-.005,16.526,0a2.169,2.169,0,0,1,2.313,2.288c.005.968,0,1.937,0,2.994h-20.45c-.221,0-.441.009-.662.014Zm11.652,1.238a15.229,15.229,0,0,0,1.523-.018c.175-.018.328-.242.491-.373-.158-.117-.314-.331-.476-.336-1.016-.031-2.033-.014-3.05-.017-.273,0-.518.088-.458.385a.6.6,0,0,0,.445.342C149.632,254.776,150.143,254.748,150.652,254.748Zm-4.746,0a6.274,6.274,0,0,0,1.016-.017c.148-.025.265-.235.4-.361-.136-.12-.267-.336-.41-.345a16.674,16.674,0,0,0-1.934,0c-.147.009-.283.218-.424.335.146.13.276.337.442.372A4.463,4.463,0,0,0,145.906,254.746Z" transform="translate(703.937 4989.975)" fill="#fff"/><path d="M139,466.476c.135-.01.27-.028.4-.028h20.646a31.7,31.7,0,0,1-.03,3.574A1.99,1.99,0,0,1,157.8,471.7q-7.212.005-14.423,0c-.578,0-1.158-.037-1.732.007A2.365,2.365,0,0,1,139,470.047Zm10.559,2.377c-.61,0-1.222-.028-1.828.018-.172.013-.328.24-.492.369.167.126.332.358.5.362q1.8.048,3.607,0a.641.641,0,0,0,.492-.354c.068-.339-.233-.393-.5-.395C150.745,468.85,150.152,468.852,149.559,468.853Z" transform="translate(703.937 4804.659)" fill="#fff"/><path d="M256.951,217.1V216.4q0-7.039,0-14.077a2.933,2.933,0,0,0-2.133-3.1,4.832,4.832,0,0,0-1.208-.136c-1.1-.018-2.206-.006-3.367-.006-.01-.195-.027-.357-.027-.519,0-1.105.032-2.211-.008-3.315a3.429,3.429,0,0,1,3.566-3.579q14.97.062,29.94,0a3.509,3.509,0,0,1,3.594,3.614c-.063,6.1-.023,12.207-.024,18.311a3.319,3.319,0,0,1-3.514,3.513q-13.134,0-26.268,0Zm11.817-20.426q-5.073,0-10.145,0c-.684,0-.725.042-.725.724q0,6.984,0,13.969c0,.673.06.735.725.735h20.24c.652,0,.724-.072.724-.737q0-6.985,0-13.969c0-.68-.044-.722-.724-.722Z" transform="translate(607.891 5041.987)" fill="#fff"/><path d="M315.01,404.317h10.2c.913,0,1.065.153,1.068,1.072,0,.442.013.884-.006,1.325a2.4,2.4,0,0,1-2.494,2.413c-1.971.013-3.942,0-5.913,0q-5.658,0-11.317,0a2.474,2.474,0,0,1-2.734-2.751c0-.374,0-.748,0-1.122.008-.708.237-.938.954-.939Q309.887,404.314,315.01,404.317Z" transform="translate(561.593 4858.32)" fill="#fff"/><path d="M356.422,384.344h8.156v1.878h-8.156Z" transform="translate(516.15 4875.57)" fill="#fff"/><g transform="translate(868.868 5239.787)"><path d="M309.282,370.637h.49q3.99,0,7.981,0a2.966,2.966,0,0,1,.461.025.527.527,0,0,1,.488.55.554.554,0,0,1-.491.594,1.553,1.553,0,0,1-.345.015H308.92c-.661,0-.852-.189-.852-.847q0-5.745,0-11.489c0-.635.2-.828.831-.828h13.918c.615,0,.806.191.806.8q0,5.783,0,11.566c0,.589-.2.792-.778.795q-.925,0-1.851,0c-.466,0-.75-.232-.75-.594s.282-.583.754-.59.945,0,1.44,0V359.865H309.282Z" transform="translate(-308.067 -358.658)" fill="#fff"/><path d="M362.9,407.831l1.633-1.651c.09-.091.177-.186.274-.27a.567.567,0,0,1,.825.014.55.55,0,0,1,0,.8q-1.141,1.171-2.311,2.313a.544.544,0,0,1-.824-.019q-.571-.544-1.115-1.116a.562.562,0,0,1-.028-.827.581.581,0,0,1,.856.01C362.437,407.3,362.642,407.551,362.9,407.831Z" transform="translate(-355.708 -400.889)" fill="#fff"/></g><path d="M363.619,408.709l2.319-2.343c.128-.129.251-.265.389-.383a.805.805,0,0,1,1.17.02.781.781,0,0,1,0,1.129q-1.62,1.662-3.281,3.284a.772.772,0,0,1-1.17-.027q-.81-.773-1.582-1.584a.8.8,0,0,1-.04-1.173.824.824,0,0,1,1.215.014C362.964,407.957,363.254,408.311,363.619,408.709Z" transform="translate(489.034 4850.299)" fill="#fff"/></g></svg>