<svg xmlns="http://www.w3.org/2000/svg" width="40" height="40" viewBox="0 0 40 40"><g transform="translate(-1303 -5429)"><path d="M1303,5449a20,20,0,0,1,20-20h0a20,20,0,0,1,20,20h0a20,20,0,0,1-20,20h0a20,20,0,0,1-20-20Z" fill="#fff"/><path d="M1322.024,5458.5c-.888,0-1.922,0-2.945-.062a5.257,5.257,0,0,1-5.517-5.517c-.064-1.156-.063-2.328-.062-3.46v-.917c0-1.136,0-2.307.062-3.465a5.256,5.256,0,0,1,5.517-5.517c1.04-.058,2.065-.062,3.026-.062h1.789c.96,0,1.985,0,3.028.063a5.257,5.257,0,0,1,5.517,5.517c.064,1.156.063,2.327.062,3.46V5449q0,.262,0,.523v.01c0,1.109,0,2.256-.062,3.388a5.257,5.257,0,0,1-5.517,5.517c-1.02.057-2.052.062-2.94.062h-1.958Zm.977-14.37a4.87,4.87,0,1,0,4.87,4.87A4.875,4.875,0,0,0,1323,5444.13Zm5.071-1.344a1.139,1.139,0,0,0,0,2.278,1.138,1.138,0,0,0,1.138-1.139A1.14,1.14,0,0,0,1328.072,5442.787ZM1323,5452.17a3.17,3.17,0,1,1,3.17-3.17A3.174,3.174,0,0,1,1323,5452.17Z" fill="#192229"/></g></svg>