<svg xmlns="http://www.w3.org/2000/svg" width="256.757" height="514.579" viewBox="0 0 256.757 514.579"><path d="M-4090.215,328.846a66.365,66.365,0,0,1,6.317,10.718q2.871,5.651,5.327,11.5a204.153,204.153,0,0,1,8.514,24.537,264.925,264.925,0,0,1,8.9,53.617,314.511,314.511,0,0,1-1.364,55.893,308.766,308.766,0,0,1-10.751,53.653c-4.823,16.207-10.948,32.312-19.588,46.9-1.017,1.716-2.19,3.352-3.329,4.989a.715.715,0,0,1-1.234-.722c7.533-14.918,14.541-29.97,19.7-45.9a299.491,299.491,0,0,0,11.76-52.381,319.15,319.15,0,0,0,2.6-55.281,272.692,272.692,0,0,0-7.3-53.7,195.947,195.947,0,0,0-18.052-47.721c-.975-1.78-1.89-3.532-2.73-5.38a.715.715,0,0,1,1.234-.721Z" transform="translate(4303.125 -220.37)" fill="#fff"/><path d="M-3888.653,334.465c2.437,19.169,1.447,38.967-1.464,58.025a247.785,247.785,0,0,1-14.734,53.835,284.865,284.865,0,0,1-25.739,49.681,334.683,334.683,0,0,1-34.835,44.756,353.827,353.827,0,0,1-41.983,39.08c-1.836,1.438-3.767,2.758-5.678,4.1-.955.668-2.122-.844-1.248-1.618,7.139-6.325,14.438-12.473,21.508-18.877q10.453-9.467,20.216-19.662a348.635,348.635,0,0,0,35.644-43.7,288.9,288.9,0,0,0,26.947-48.481,246.28,246.28,0,0,0,16.172-52.96,241.989,241.989,0,0,0,3.5-56.869c-.13-2.435-.288-4.869-.429-7.3-.081-1.4,1.959-1.319,2.127,0Z" transform="translate(4089.689 -222.905)" fill="#fff"/><path d="M-4008.819,347.813a178.047,178.047,0,0,0,3.938,27.574c2.012,9.147,4.338,18.231,6.077,27.436a132.633,132.633,0,0,1,2.428,27.293,219.446,219.446,0,0,1-1.865,24.42,250.255,250.255,0,0,1-11.459,48.505,248.436,248.436,0,0,1-20.937,45.782c-8.27,13.988-17.932,27.418-29.365,39-1.379,1.4-2.894,2.677-4.361,3.98a.366.366,0,0,1-.518-.517c5.3-5.913,10.559-11.919,15.437-18.189a220,220,0,0,0,14.033-20.363,254.567,254.567,0,0,0,21.712-44.925,251.759,251.759,0,0,0,12.543-48.267c2.582-16.7,3.791-33.992,1.154-50.749-2.86-18.172-9.006-35.775-10.193-54.216a51.847,51.847,0,0,1,.148-6.767.615.615,0,0,1,1.229,0Z" transform="translate(4223.194 -229.996)" fill="#fff"/><path d="M-3979.512,355.7a127.2,127.2,0,0,1,3.023,20.375q.938,10.563,1.156,21.174a297.958,297.958,0,0,1-2.148,42.733,257.93,257.93,0,0,1-8.719,42.256,207.822,207.822,0,0,1-16.125,39.075,157.646,157.646,0,0,1-24.4,34.056c-1.218,1.278-2.455,2.491-3.794,3.641a.449.449,0,0,1-.634-.635c2.2-2.737,4.563-5.337,6.771-8.07s4.345-5.517,6.412-8.354a186.911,186.911,0,0,0,11.2-17.33,203.329,203.329,0,0,0,16.825-38.523,259.942,259.942,0,0,0,9.662-41.383,292.753,292.753,0,0,0,3.132-42.609c.028-13.88-1.165-27.636-2.476-41.44-.156-1.638-.294-3.26-.379-4.9a.25.25,0,0,1,.49-.066Z" transform="translate(4185.747 -234.271)" fill="#fff"/><path d="M-4061.354,929.955a3.246,3.246,0,0,1,.742-.77c.277-.179.561-.349.849-.508a15.775,15.775,0,0,0,1.563-1.013c.05-.035.222-.165.026-.016.1-.079.2-.161.307-.239.123-.091.25-.178.373-.268.241-.175-.032.036.159-.122.127-.105.255-.208.38-.315a13.4,13.4,0,0,0,1.228-1.2c.184-.2.36-.416.532-.631.134-.166-.007.009-.027.037.052-.069.1-.138.155-.208q.127-.174.248-.352a13.827,13.827,0,0,0,.88-1.479q.178-.346.337-.7l.071-.159c.121-.275-.1.252.011-.028.053-.135.107-.269.158-.405a16.149,16.149,0,0,0,.525-1.678q.211-.827.342-1.672c.014-.085.076-.574.033-.207.018-.152.037-.3.053-.456q.048-.461.076-.923a24.9,24.9,0,0,0-.063-3.732c-.028-.312-.064-.623-.1-.935a1.178,1.178,0,0,0-.026-.2c-.027-.182-.054-.364-.084-.546q-.16-.981-.381-1.951a35.6,35.6,0,0,0-1.145-3.934c-.239-.678-.5-1.348-.774-2.012-.022-.052-.1-.234.008.017-.036-.083-.071-.167-.108-.25-.065-.15-.13-.3-.2-.449q-.224-.5-.46-.993a42.556,42.556,0,0,0-2.091-3.834q-.568-.925-1.182-1.822-.3-.437-.612-.865-.148-.2-.3-.4l-.168-.223c-.039-.052-.289-.377-.09-.12a40.017,40.017,0,0,0-2.826-3.271,36.594,36.594,0,0,0-3.133-2.9c-.126-.1-.252-.205-.38-.306-.088-.07-.445-.345-.176-.14-.3-.228-.6-.452-.906-.671q-.846-.6-1.73-1.148t-1.786-1.011q-.44-.228-.889-.44c-.157-.074-.314-.147-.472-.217-.1-.047-.6-.256-.213-.1a24.792,24.792,0,0,0-3.8-1.236q-.5-.116-1-.208-.2-.036-.4-.069c-.113-.018-.775-.1-.3-.049-.643-.075-1.286-.134-1.933-.154a19.581,19.581,0,0,0-2.06.046c-.312.023-.623.061-.934.092-.366.038.349-.059-.014,0-.069.012-.139.021-.209.031q-.287.045-.574.1a21.163,21.163,0,0,0-4.1,1.223c-.22.089.336-.15-.008,0l-.211.092c.038-.016-.955.407-.539.224-.363.159-.723.322-1.078.5-.738.362-1.479.723-2.2,1.12s-1.419.825-2.161,1.19a.935.935,0,0,1-1.127-1.461,15.237,15.237,0,0,1,4.135-3.4,20.055,20.055,0,0,1,4.437-1.911,21.061,21.061,0,0,1,8.673-.705c5.97.771,11.3,3.914,15.6,8.025a43.357,43.357,0,0,1,10.126,15.132c2.055,5.1,3.177,10.822,2.178,16.3a16.286,16.286,0,0,1-2.788,6.7,14.535,14.535,0,0,1-2.606,2.764,14.286,14.286,0,0,1-3.57,2.027c.2-.082-.142.058-.228.086s-.159.043-.237.064a4.834,4.834,0,0,1-.482.131,3.492,3.492,0,0,1-1.127-.111.47.47,0,0,1-.206-.778Z" transform="translate(4291.386 -503.984)" fill="#fff"/><path d="M-3983.712,910.027a4.665,4.665,0,0,1-.178-1.127c.019-.356.07-.712.089-1.069a16.494,16.494,0,0,0-.023-2.034c-.013-.172-.03-.344-.048-.515-.022-.2.031.205,0,.007-.011-.074-.022-.147-.035-.22q-.083-.488-.212-.966-.113-.418-.261-.826c-.018-.049-.177-.455-.105-.281.063.152-.131-.285-.169-.363a12.1,12.1,0,0,0-.919-1.55c-.081-.117-.166-.231-.249-.347-.12-.171.174.215.043.053-.044-.055-.089-.112-.134-.166q-.308-.375-.645-.724a14.729,14.729,0,0,0-1.389-1.252c-.171-.138.234.173.057.045-.076-.055-.151-.112-.226-.167q-.183-.133-.37-.26-.4-.274-.821-.523c-.589-.352-1.2-.677-1.815-.974-.29-.14-.583-.271-.879-.4.348.149-.034-.011-.165-.063q-.286-.113-.576-.218a26.105,26.105,0,0,0-4.146-1.12q-.509-.1-1.021-.172c-.086-.013-.171-.024-.257-.037.4.063.154.02.066.009-.216-.026-.432-.052-.647-.075q-1.107-.117-2.221-.151a29.877,29.877,0,0,0-4.443.189c-.086.01-.172.022-.258.032.479-.052.031,0-.051.008l-.576.083c-.4.058-.8.123-1.205.2-.79.148-1.56.353-2.336.555s-1.557.343-2.325.554c-.719.2-1.612.555-2.185.639-.68.1-1.566-.622-1.032-1.343a6.806,6.806,0,0,1,1.815-1.555,12.312,12.312,0,0,1,1.881-1.1,20.073,20.073,0,0,1,4.653-1.342,31.073,31.073,0,0,1,10.026.048,24.6,24.6,0,0,1,8.711,2.993,14.564,14.564,0,0,1,5.85,6.038,12.028,12.028,0,0,1,1.13,4.683,11.29,11.29,0,0,1-.249,2.6,9.787,9.787,0,0,1-.333,1.217,3.278,3.278,0,0,1-.846,1.243.586.586,0,0,1-.972-.257Z" transform="translate(4184.157 -509.97)" fill="#fff"/><path d="M-3974.04,871.273c.136-.264.266-.53.384-.8l-.134.495a4.094,4.094,0,0,1,.425-1.444c.182-.452.318-.921.47-1.384a9.224,9.224,0,0,0,.489-2.473,10.644,10.644,0,0,0-.9-4.862,17.266,17.266,0,0,0-7.331-7.853c-.913-.522-1.866-.959-2.8-1.435s-1.955-.812-2.924-1.245c-.741-.33-.281-1.342.378-1.393a11.866,11.866,0,0,1,6.309,1.6,21.269,21.269,0,0,1,5.147,3.925c2.866,2.986,4.973,7.029,4.752,11.26a11.493,11.493,0,0,1-.662,3.4,9.467,9.467,0,0,1-.909,1.758,9.736,9.736,0,0,1-1.358,1.48c-.69.712-1.762-.191-1.331-1.027Z" transform="translate(4158.642 -488.232)" fill="#fff"/><path d="M-3900.218,868.7c0-.183-.015-.366-.025-.549,0-.068-.045-.376,0-.03a2.3,2.3,0,0,1,.018-.753c.014-.089.028-.18.044-.269.056-.306-.021.287,0-.019.014-.2.039-.4.049-.607a8.747,8.747,0,0,0,0-.926c-.01-.165-.03-.328-.043-.492-.024-.291.068.307,0,.025-.024-.1-.035-.212-.056-.316a8.108,8.108,0,0,0-.24-.918c-.04-.124-.086-.247-.13-.37-.027-.074-.059-.145-.087-.218.151.4.021.049-.022-.036-.139-.28-.281-.556-.445-.823q-.123-.2-.256-.394c-.069-.1-.393-.513-.111-.165a11.337,11.337,0,0,0-1.39-1.451c-.1-.09-.211-.177-.318-.265-.071-.058-.316-.23.028.019-.067-.049-.134-.1-.2-.149q-.447-.325-.92-.611a17.975,17.975,0,0,0-1.88-.966c-.086-.039-.389-.159.026.009l-.252-.1q-.255-.1-.514-.2-.523-.189-1.058-.347a20.189,20.189,0,0,0-2.225-.52c-.191-.034-.383-.063-.574-.093-.1-.016-.447-.053.025,0l-.291-.035q-.636-.074-1.274-.109a22.347,22.347,0,0,0-2.391-.007q-.6.031-1.2.094c-.167.018-.334.039-.5.059.534-.062-.234.038-.374.062a20.826,20.826,0,0,0-2.363.537q-.582.17-1.154.374-.286.1-.568.214c-.094.037-.187.076-.281.114.476-.188.027-.01-.072.033a17.641,17.641,0,0,0-2.141,1.135q-.473.295-.926.621c-.083.059-.163.122-.246.181-.3.211.3-.248.018-.015-.183.151-.369.3-.549.454a16.377,16.377,0,0,0-1.932,2c-.067.081-.281.385.01-.016-.083.114-.168.226-.25.34q-.216.3-.418.617-.382.594-.708,1.221-.18.345-.342.7c-.047.1-.091.206-.138.308-.129.279.134-.36-.042.107s-.35.949-.505,1.43c-.175.542-.3,1.1-.471,1.641a4.8,4.8,0,0,1-.4,1.1c-.145.237-.34.454-.5.681a1.182,1.182,0,0,1-2.126-.277,3.706,3.706,0,0,1-.328-1.77,11.71,11.71,0,0,1,.336-1.9,17.014,17.014,0,0,1,1.16-3.08,16.789,16.789,0,0,1,3.355-4.667,19.283,19.283,0,0,1,9.586-4.972,23.6,23.6,0,0,1,10.659.234,15.763,15.763,0,0,1,8.114,4.707,9.83,9.83,0,0,1,2.221,8.7,4,4,0,0,1-.643,1.191.955.955,0,0,1-1.765-.478Z" transform="translate(4060.461 -490.803)" fill="#fff"/><path d="M-3777.924,832.773a2.819,2.819,0,0,0,.4-.23c.044-.061.069-.308.1-.376a1.021,1.021,0,0,1,.351-.393,7.8,7.8,0,0,1,1.292-.712,10.606,10.606,0,0,1,3.356-.635,24.452,24.452,0,0,1,6.16.315,30.45,30.45,0,0,1,11.64,4.768c6.88,4.588,12.773,11.964,14.053,20.312a21.268,21.268,0,0,1-.047,7.174,18.146,18.146,0,0,1-.917,3.211,14.388,14.388,0,0,1-.858,1.785,2.1,2.1,0,0,1-1.094,1.031,4.023,4.023,0,0,0-.569.3.756.756,0,0,1-1.125-.646,4.275,4.275,0,0,1-.041-1.564c.158-.5.377-.983.547-1.477a25.672,25.672,0,0,0,.846-2.812c.1-.446.182-.9.254-1.347.015-.09.027-.18.042-.269.07-.449-.031.333.015-.119.027-.271.058-.541.078-.812a19.739,19.739,0,0,0,.014-2.7q-.042-.675-.129-1.346c.042.326-.047-.29-.065-.4q-.067-.4-.15-.8a23.413,23.413,0,0,0-.754-2.776q-.221-.656-.479-1.3c-.034-.086-.069-.172-.1-.258.11.268-.067-.155-.073-.168q-.169-.385-.349-.764-.606-1.275-1.339-2.485a30.99,30.99,0,0,0-7.873-8.537,29.518,29.518,0,0,0-10.5-5.084,21.437,21.437,0,0,0-6.211-.692,19.547,19.547,0,0,0-2.956.313,10.8,10.8,0,0,1-1.83.061,1.5,1.5,0,0,1-.913-.146c-.06-.039-.133-.14-.193-.167a.9.9,0,0,0-.458.028.15.15,0,0,1-.116-.273Z" transform="translate(3827.882 -478.709)" fill="#fff"/><path d="M-3842.485,866.547a10.394,10.394,0,0,1,2.355-3.066,18.56,18.56,0,0,1,2.866-1.96,14.108,14.108,0,0,1,5.949-1.708c4.065-.214,7.838,1.629,10.921,4.135a33.811,33.811,0,0,1,8.2,10.439,46.179,46.179,0,0,1,4.72,13.5,37.315,37.315,0,0,1,.628,6.981,15.491,15.491,0,0,1-1.269,6.545,3.276,3.276,0,0,1-.933,1.216.755.755,0,0,1-1.25-.33,11.8,11.8,0,0,1-.043-2.881c.037-1,.146-2,.206-2.993a29.968,29.968,0,0,0,.02-3.145q-.034-.775-.1-1.549-.035-.391-.078-.782c-.014-.13-.03-.261-.045-.392-.01-.079-.089-.658-.027-.222a43.216,43.216,0,0,0-1.435-6.464q-.5-1.645-1.121-3.248-.149-.385-.3-.767c-.052-.127-.1-.254-.157-.381.151.361-.028-.063-.05-.113q-.353-.817-.738-1.619a41.394,41.394,0,0,0-3.281-5.671c-.3-.425-.6-.841-.911-1.256-.26-.347.215.268-.054-.07-.079-.1-.157-.2-.237-.3q-.276-.344-.562-.681a28.394,28.394,0,0,0-2.1-2.23q-.472-.448-.968-.872c-.177-.151-.358-.3-.539-.445-.065-.054-.384-.3-.027-.025-.121-.092-.242-.184-.365-.274a18.38,18.38,0,0,0-2.347-1.471c-.379-.2-.767-.379-1.158-.551.479.21-.17-.062-.289-.105q-.343-.126-.691-.233c-.394-.121-.794-.225-1.2-.307-.2-.041-.4-.07-.6-.108-.363-.068.4.034.032,0-.135-.011-.271-.03-.406-.041a11.469,11.469,0,0,0-1.33-.032c-.241.008-.481.025-.721.048-.1.011-.206.024-.31.035.52-.057.025,0-.084.019a11.811,11.811,0,0,0-1.455.35q-.368.114-.729.25c-.1.04-.209.083-.313.123.433-.168-.052.025-.136.064a15.633,15.633,0,0,0-2.923,1.779c.3-.228-.053.045-.093.078-.21.17-.423.337-.64.5l-.327.242-.02.015-.222.178c-.583.459-1.264.786-1.868,1.222-.884.639-1.925-.581-1.432-1.432Z" transform="translate(3925.786 -493.866)" fill="#fff"/><path d="M-3858.922,895.556a42.359,42.359,0,0,0-4.226-5.28,21.327,21.327,0,0,0-5.591-3.862,19.061,19.061,0,0,0-2.931-1.147q-.8-.248-1.625-.43-.408-.09-.821-.164c-.125-.022-.25-.043-.375-.063-.1-.016-.2-.031-.3-.045q.24.032-.041,0a19.327,19.327,0,0,0-3.309-.087c-.3.02-.6.049-.9.084.3-.034-.029,0-.1.016-.123.02-.247.039-.37.061a15.862,15.862,0,0,0-1.753.415,11.268,11.268,0,0,0-2.906,1.255c-.9.52-3.029,1.75-3.624.211a2.137,2.137,0,0,1,.6-1.975,7.612,7.612,0,0,1,1.743-1.2,17.306,17.306,0,0,1,3.346-1.351,20.181,20.181,0,0,1,14.034,1.454,22.17,22.17,0,0,1,6.5,4.712c1.811,1.9,3.53,4.2,3.957,6.848a.718.718,0,0,1-1.306.551Z" transform="translate(3998.503 -504.947)" fill="#fff"/><path d="M-3764.349,916.609a2.962,2.962,0,0,0-.269-.594l.458.352c-.813-.132-1.144-1.408-1.45-2.05a23.537,23.537,0,0,0-1.243-2.184,15.852,15.852,0,0,0-2.947-3.714,9.859,9.859,0,0,0-1.725-1.322q-.47-.3-.965-.554c-.187-.1-.378-.184-.568-.277-.01,0-.247-.109-.091-.043.172.073-.2-.081-.238-.093a13.323,13.323,0,0,0-2.257-.6c-.063-.012-.333-.043-.012,0-.078-.009-.156-.019-.234-.025-.182-.014-.365-.03-.547-.038a10.219,10.219,0,0,0-1.267.025c-.107.009-.213.02-.32.031.18-.019.118-.02-.025,0-.243.043-.484.088-.724.145a12.721,12.721,0,0,0-1.375.423s-.266.1-.117.043-.244.11-.28.127q-.328.154-.648.329c-.5.273-1,.563-1.481.87a1.689,1.689,0,0,1-2.187-.437,1.676,1.676,0,0,1,.132-2.226,12.333,12.333,0,0,1,11.492-2.142,16.228,16.228,0,0,1,8.572,7.326,13.432,13.432,0,0,1,1.245,3.055c.269.942.8,2.573-.151,3.258l.352-.458a5.149,5.149,0,0,0,.01.622.585.585,0,0,1-1.143.155Z" transform="translate(3854.116 -515.615)" fill="#fff"/><path d="M-3705.814,817.578c4.083-2.979,9.092.043,11.919,3.3,3.185,3.673,5.471,8.735,5.247,13.673a11.248,11.248,0,0,1-.757,3.74,6.866,6.866,0,0,1-1.167,2.02,3.265,3.265,0,0,1-.873.749c-.145.08-.3.142-.452.207-.55.24.343-.135-.187.079-.115.047-.225.092-.342.133a1.237,1.237,0,0,1-1.513-1.513c.065-.165.148-.328.2-.5-.07.217-.04.071,0-.055a5.051,5.051,0,0,1,.422-.951c.217-.394.435-.8.632-1.2.028-.058.183-.391.071-.142s.052-.137.075-.2c.083-.225.156-.454.219-.685.06-.216.111-.434.156-.654.022-.111.041-.223.062-.334.075-.4-.024.306.019-.115a14.675,14.675,0,0,0-.032-3.038c-.035-.329.049.281-.007-.047-.021-.123-.039-.247-.061-.37-.047-.269-.1-.538-.162-.8q-.183-.814-.439-1.608-.119-.371-.253-.737c-.052-.143-.106-.285-.161-.427-.027-.07-.184-.458-.114-.29s-.075-.171-.1-.227q-.08-.18-.164-.359-.181-.386-.377-.766a22.2,22.2,0,0,0-1.793-2.864c-.179-.246.128.152-.064-.083-.08-.1-.159-.2-.24-.3q-.261-.316-.536-.619c-.358-.395-.735-.772-1.131-1.13-.178-.161-.362-.314-.546-.468-.046-.038-.093-.074-.139-.111.009.007.222.167.082.063s-.25-.186-.378-.275c-.388-.271-.788-.529-1.2-.761-.24-.134-.486-.256-.735-.372-.31-.144.139.04-.1-.04-.118-.04-.235-.088-.354-.128a13.129,13.129,0,0,0-1.465-.411c-.117-.025-.235-.045-.353-.065-.146-.024.067.009.079.01-.069-.007-.139-.016-.209-.02-.245-.017-.487-.022-.733-.021a8.848,8.848,0,0,0-1.471.074.752.752,0,0,1-.576-1.367Z" transform="translate(3741.369 -471.505)" fill="#fff"/><path d="M-4116.713,975.879c2.9-3.3,7.7-4.473,11.948-4.2a25.322,25.322,0,0,1,12.24,4.423,40.381,40.381,0,0,1,10.247,10.022,39.334,39.334,0,0,1,6.207,12.835c1.155,4.345,1.522,9,0,13.3a3.047,3.047,0,0,1-.978,1.5.825.825,0,0,1-1.361-.359,4.223,4.223,0,0,1-.163-.807,4.353,4.353,0,0,1,.153-.918,12.548,12.548,0,0,0,.212-1.379c.1-1,.146-2,.185-3a24.326,24.326,0,0,0-.077-3.074c-.022-.259-.049-.518-.079-.776-.016-.13-.031-.26-.049-.389.047.352-.013-.081-.02-.127q-.129-.849-.307-1.69a32.081,32.081,0,0,0-.832-3.117q-.25-.78-.537-1.548-.144-.386-.3-.77c-.042-.107-.086-.213-.129-.319l-.079-.191q.089.208-.014-.031a41.028,41.028,0,0,0-3.248-6.032q-.462-.708-.954-1.4-.245-.345-.5-.684l-.169-.226c-.03-.039-.359-.467-.2-.263q-1.08-1.383-2.272-2.672-1.131-1.22-2.362-2.344-.607-.553-1.239-1.079-.261-.218-.526-.43l-.319-.252q-.2-.156-.025-.019l-.215-.163a30.179,30.179,0,0,0-5.488-3.311q-.345-.159-.7-.308c.308.13-.08-.03-.118-.046-.117-.047-.233-.093-.351-.138q-.7-.267-1.408-.49a20.707,20.707,0,0,0-2.959-.7l-.237-.036q-.253-.036.03,0l-.238-.028c-.277-.028-.554-.056-.831-.074q-.829-.055-1.66-.031c-.514.015-1.023.06-1.534.116-.4.043.307-.06-.085.013-.156.029-.313.05-.469.079-.273.05-.546.107-.817.172a15.932,15.932,0,0,0-1.619.477c-.231.082-.458.171-.687.26-.382.149.266-.122-.11.047-.228.1-.457.2-.69.281a10.913,10.913,0,0,0-1.426.605c-.556.272-1.1.552-1.663.818a.985.985,0,0,1-1.188-1.54Z" transform="translate(4327.134 -551.443)" fill="#fff"/><path d="M-3976.324,988.763a23.721,23.721,0,0,0-.124-4.086,34.194,34.194,0,0,0-.611-4.488,35.978,35.978,0,0,0-3.5-9.543,34.717,34.717,0,0,0-2.793-4.383c-.245-.328.114.143-.04-.053l-.2-.247q-.2-.244-.4-.484-.4-.474-.819-.928a21.863,21.863,0,0,0-1.729-1.676c-.3-.255-.6-.5-.906-.738.294.228-.08-.057-.184-.133-.168-.122-.339-.241-.512-.357a14.2,14.2,0,0,0-1.923-1.087c-.082-.038-.167-.07-.247-.111-.208-.106.371.138.033.015-.168-.061-.333-.13-.5-.189-.335-.117-.675-.22-1.019-.3-.327-.081-.657-.127-.986-.2-.23-.048.418.034.06.009-.07,0-.141-.015-.211-.022q-.318-.029-.636-.038a10.007,10.007,0,0,0-1.182.036c-.09.008-.181.024-.271.028q-.188.023.158-.023l-.218.034c-.183.034-.366.065-.548.106a11.028,11.028,0,0,0-1.272.362c-.207.072-.411.151-.614.234.356-.144.084-.036,0,.005-.131.063-.263.122-.394.186a15.9,15.9,0,0,0-2.5,1.565c.316-.237-.154.123-.287.221s-.28.2-.418.3c-.081.058-.16.118-.24.177a1.419,1.419,0,0,0-.167.129,4.057,4.057,0,0,1-2.059.734c-.419.057-.978-.176-.926-.7a5.1,5.1,0,0,1,.386-1.6,4.865,4.865,0,0,1,1.269-1.464,14.265,14.265,0,0,1,2.613-1.815,13.681,13.681,0,0,1,5.272-1.678,13.177,13.177,0,0,1,9.074,2.826,26.045,26.045,0,0,1,6.921,8.361,38.815,38.815,0,0,1,3.936,10.465,28.384,28.384,0,0,1,.7,5.859,12.088,12.088,0,0,1-1.062,4.953c-.193.456-.964.223-.928-.251Z" transform="translate(4171.828 -543.645)" fill="#fff"/><path d="M-3940.324,974.65a24.811,24.811,0,0,0-2.757-3.46,12.781,12.781,0,0,0-3.408-2.5c-.179-.091-.36-.173-.541-.26,0,0-.23-.1-.093-.044.153.066-.133-.054-.165-.066-.351-.137-.707-.263-1.068-.373s-.731-.205-1.1-.287q-.26-.057-.524-.1c-.1-.018-.611-.1-.334-.059a14.474,14.474,0,0,0-2.306-.108c-.389.012-.777.032-1.165.069-.086.008-.568.068-.265.025-.207.029-.414.064-.619.1-.781.147-1.526.443-2.3.6-.817.162-2.417-.071-2.387-1.178s1.224-1.849,2.133-2.135a14.785,14.785,0,0,1,2.305-.525,15.975,15.975,0,0,1,9.7,1.59c3.129,1.624,6,4.725,5.952,8.436a.57.57,0,0,1-1.053.285Z" transform="translate(4114.859 -547.593)" fill="#fff"/><path d="M-3920.111,947.263c-.029-.89-.016-1.768-.008-2.66a8.94,8.94,0,0,0-.3-2.431,12.147,12.147,0,0,0-2.307-4.81,17.242,17.242,0,0,0-9.392-6.111,17.352,17.352,0,0,0-3.312-.493,15.548,15.548,0,0,1-3.63-.39.737.737,0,0,1-.323-1.222,6.067,6.067,0,0,1,3.439-1.153,14.1,14.1,0,0,1,3.593.287,19.526,19.526,0,0,1,6.484,2.548,17.728,17.728,0,0,1,8.066,10.167,10.806,10.806,0,0,1,.329,3.392,7.282,7.282,0,0,1-.3,1.764,5.224,5.224,0,0,1-.946,1.689c-.461.6-1.37.059-1.39-.576Z" transform="translate(4083.454 -528.961)" fill="#fff"/><path d="M-4126.435,1050.532a10.435,10.435,0,0,1,4.278-1.432,21.486,21.486,0,0,1,4.16-.235,20.443,20.443,0,0,1,7.652,1.9c4.728,2.2,8.4,6.31,10.892,10.814a38.849,38.849,0,0,1,4.628,16.1,34.855,34.855,0,0,1-2.641,16.334,23.545,23.545,0,0,1-4.385,6.643,18.336,18.336,0,0,1-6.775,4.529,13.293,13.293,0,0,1-1.94.56.584.584,0,0,1-.448-1.063,29.131,29.131,0,0,0,6.03-4.608c.437-.438.861-.892,1.268-1.358q.305-.349.6-.711c.063-.078.287-.371.1-.129.114-.15.227-.3.337-.453a27.393,27.393,0,0,0,1.964-3.208q.441-.826.822-1.683c.056-.127.112-.255.167-.383-.155.359.069-.172.1-.243q.176-.44.337-.885a30.491,30.491,0,0,0,1.078-3.727q.217-.972.374-1.957.034-.214.065-.428c.011-.071.021-.143.031-.214.053-.352-.027.214,0-.01.043-.342.084-.684.118-1.027a36.87,36.87,0,0,0,.179-3.94,38.748,38.748,0,0,0-.246-4.073c-.016-.146-.035-.292-.052-.439-.009-.073-.019-.146-.028-.219.038.3.006.046,0-.029-.05-.346-.1-.693-.159-1.037q-.165-.979-.378-1.949a37.87,37.87,0,0,0-1.062-3.853q-.317-.951-.686-1.884c-.053-.134-.107-.267-.161-.4-.027-.067-.055-.133-.083-.2.1.248.01.022-.017-.04-.136-.311-.273-.622-.416-.93a32.238,32.238,0,0,0-1.8-3.35q-.505-.817-1.064-1.6-.255-.356-.52-.7c-.2-.264.1.129-.024-.031l-.127-.161q-.174-.22-.354-.436a24.542,24.542,0,0,0-2.512-2.612q-.334-.3-.679-.583c-.1-.084-.206-.167-.309-.249,0,0-.257-.2-.111-.088s-.087-.065-.112-.085c-.488-.363-.988-.713-1.5-1.041a17.161,17.161,0,0,0-6.47-2.594,13.284,13.284,0,0,0-1.726-.237c-.657-.055-1.319-.08-1.979-.074a33.661,33.661,0,0,0-4.055.346c-.33.042-.661.091-.988.151a6.19,6.19,0,0,1-1.138.048.452.452,0,0,1-.226-.836Z" transform="translate(4351.486 -591.186)" fill="#fff"/><path d="M-3639.232,838.128c-.332-.5-.838-.809-1.181-1.3-.325-.464-.6-.963-.911-1.435a17.182,17.182,0,0,0-1.711-2.23q-.443-.489-.927-.94-.223-.208-.456-.407c-.092-.079-.185-.155-.278-.231-.062-.05-.124-.1-.187-.149q.167.129-.015-.008a13.231,13.231,0,0,0-2.15-1.3c-.084-.04-.608-.263-.272-.128-.17-.068-.34-.135-.512-.2a12.628,12.628,0,0,0-1.254-.379c-.352-.087-.706-.168-1.062-.233-.112-.021-.793-.109-.357-.062-.217-.023-.433-.048-.651-.064a14.549,14.549,0,0,0-2.42.026c-.186.017-.371.039-.556.062.43-.052-.221.038-.326.056q-.646.113-1.282.274a21.222,21.222,0,0,0-2.447.8c-.057.022-.429.178-.081.03-.074.032-.147.063-.22.1-.22.1-.44.2-.658.3q-.606.29-1.2.615a25.359,25.359,0,0,0-2.333,1.461q-.287.2-.568.411l-.256.192c-.342.257.237-.194-.1.076-.369.3-.738.6-1.1.912q-1.089.954-2.081,2.012-.5.536-.978,1.094-.218.255-.429.516-.127.156-.252.314l-.167.212c.092-.119.1-.135.038-.047a34.017,34.017,0,0,0-3.216,5.118c-.248.489-.476.986-.7,1.486-.185.411.1-.265-.066.154-.052.128-.1.255-.155.383q-.152.384-.293.773c-.391,1.082-.7,2.189-.983,3.3a67.791,67.791,0,0,0-1.033,6.781c-.114.737-1.147.585-1.346,0a14.867,14.867,0,0,1-.368-6.6,24.662,24.662,0,0,1,1.7-6.312,30.222,30.222,0,0,1,7.282-10.57c5.44-5.1,13.754-9.007,21.112-5.768a14.382,14.382,0,0,1,4.987,3.73,17.265,17.265,0,0,1,2.1,2.977,14.21,14.21,0,0,1,.869,1.833,11.867,11.867,0,0,1,.287,2,.468.468,0,0,1-.851.359Z" transform="translate(3676.915 -476.492)" fill="#fff"/><path d="M-4124.1,203.361l37.974,27.227c11.45,8.154,9.517,19.109-4.868,23.575l-15.983,4.959Z" transform="translate(4334.229 -155.938)"/><path d="M-4108.241,259.051a1.17,1.17,0,0,0,.351-.053l15.983-4.959c7.442-2.311,12.177-6.56,12.995-11.658.785-4.9-1.983-9.872-7.791-14.008l-37.971-27.225a1.182,1.182,0,0,0-1.378,0,1.181,1.181,0,0,0-.439,1.306l17.123,55.762a1.18,1.18,0,0,0,.578.7A1.18,1.18,0,0,0-4108.241,259.051Zm-14.965-53.943,35.127,25.187c4.968,3.538,7.458,7.806,6.832,11.711-.669,4.178-4.811,7.741-11.361,9.775l-14.851,4.608Z" transform="translate(4335.492 -154.685)" fill="#fff"/><path d="M-3958.893,230.792l-16.151,43.848c-4.9,13.176,2.851,21.157,17.263,16.779l16.01-4.868Z" transform="translate(4125.684 -170.059)"/><path d="M-3966.349,292.539a26.6,26.6,0,0,0,7.671-1.243l16.011-4.868a1.181,1.181,0,0,0,.7-.576,1.186,1.186,0,0,0,.086-.9L-3959,229.192a1.181,1.181,0,0,0-1.1-.835,1.184,1.184,0,0,0-1.141.773l-16.151,43.848c-2.486,6.679-1.984,12.35,1.414,15.962C-3973.74,291.321-3970.393,292.539-3966.349,292.539Zm21.86-8.027-14.876,4.524c-6.564,1.993-11.993,1.369-14.893-1.714-2.709-2.881-3.045-7.81-.919-13.523l14.942-40.565Z" transform="translate(4126.924 -168.806)" fill="#fff"/><path d="M-4029.432,161.3c5.278,8.834,5.695,12.325,5.695,12.325l20.861,67.919-50.677,15.562-20.858-67.918s-2.2-4.714-2.395-13.34Z" transform="translate(4235.451 -134.288)"/><path d="M-4054.806,257.039a1.182,1.182,0,0,0,.347-.052l50.677-15.561a1.184,1.184,0,0,0,.7-.576,1.185,1.185,0,0,0,.085-.9l-20.837-67.841c-.126-.729-.968-4.518-5.833-12.662a1.181,1.181,0,0,0-1.362-.524l-47.375,14.548a1.183,1.183,0,0,0-.835,1.157c.187,8.265,2.161,13.037,2.469,13.731l20.836,67.847A1.182,1.182,0,0,0-4054.806,257.039Zm49.2-17.526-48.417,14.868-20.512-66.788a1.207,1.207,0,0,0-.059-.153c-.019-.041-1.948-4.306-2.256-11.976l45.622-14.01c4.57,7.807,5.061,11.04,5.065,11.073a1.326,1.326,0,0,0,.043.2Zm-19.384-67.137h0Z" transform="translate(4236.704 -133.034)" fill="#fff"/><path d="M-3975.087,133.872l-47.375,14.548c.005.258-.032-2.085.038-3.664.51-11.869,9.839-35.512,13.6-36.668s24.76,11.6,31.84,22.711C-3975.516,133.106-3974.446,134.944-3975.087,133.872Z" transform="translate(4181.106 -106.855)"/><path d="M-4023.775,148.39h.017a1.232,1.232,0,0,0,.519-.13l46.457-14.266a1.107,1.107,0,0,0,.6.142,1.181,1.181,0,0,0,1.013-.625c.189-.355.278-.521-.057-1.189l.009-.005-.076-.126c-.316-.6-.927-1.558-2.007-3.256-7.269-11.4-28.6-24.616-33.184-23.206-4.963,1.525-13.959,26.709-14.435,37.747-.039.884-.052,2.19-.038,3.676v.018c0,.014,0,.028,0,.043A1.2,1.2,0,0,0-4023.775,148.39Zm45.578-16.434-44.4,13.635c0-.8.017-1.487.04-2.014.541-12.568,10.11-34.757,12.767-35.59,1.1-.335,6.462,1.771,13.669,6.609,7.528,5.053,13.819,10.888,16.828,15.608C-3978.89,130.837-3978.514,131.441-3978.2,131.956Z" transform="translate(4182.42 -105.624)" fill="#fff"/><path d="M-4021.856,191.928a22.1,22.1,0,0,1,27.608,14.634,22.091,22.091,0,0,1-14.634,27.6,22.093,22.093,0,0,1-27.608-14.63A22.092,22.092,0,0,1-4021.856,191.928Zm11.492,37.419a17.048,17.048,0,0,0,11.3-21.3,17.051,17.051,0,0,0-21.308-11.3,17.05,17.05,0,0,0-11.293,21.307A17.047,17.047,0,0,0-4010.364,229.347Z" transform="translate(4206.758 -149.548)" fill="#1a1a1a"/><path d="M-4016.615,235.073a23.192,23.192,0,0,0,6.82-1.027,23.119,23.119,0,0,0,13.731-11.347,23.126,23.126,0,0,0,1.686-17.733,23.306,23.306,0,0,0-29.085-15.417A23.121,23.121,0,0,0-4037.2,200.9a23.126,23.126,0,0,0-1.685,17.736A23.322,23.322,0,0,0-4016.615,235.073Zm-.027-44.188a20.952,20.952,0,0,1,20,14.775,20.778,20.778,0,0,1-1.515,15.933,20.767,20.767,0,0,1-12.337,10.194,20.94,20.94,0,0,1-26.132-13.847A20.776,20.776,0,0,1-4035.107,202a20.773,20.773,0,0,1,12.338-10.2h0A20.852,20.852,0,0,1-4016.643,190.885Zm-.013,39.155a18.3,18.3,0,0,0,5.378-.813h0a18.108,18.108,0,0,0,10.759-8.889,18.111,18.111,0,0,0,1.32-13.892,18.119,18.119,0,0,0-8.89-10.758,18.105,18.105,0,0,0-13.894-1.319,18.1,18.1,0,0,0-10.756,8.89,18.119,18.119,0,0,0-1.319,13.894,18.1,18.1,0,0,0,8.888,10.756A18.148,18.148,0,0,0-4016.656,230.04Zm.047-34.12a15.785,15.785,0,0,1,7.411,1.856,15.769,15.769,0,0,1,7.738,9.364,15.763,15.763,0,0,1-1.148,12.09,15.757,15.757,0,0,1-9.364,7.737h0a15.767,15.767,0,0,1-12.093-1.148,15.756,15.756,0,0,1-7.736-9.361,15.773,15.773,0,0,1,1.148-12.094,15.759,15.759,0,0,1,9.361-7.738A15.933,15.933,0,0,1-4016.608,195.92Z" transform="translate(4208.019 -148.299)" fill="#fff"/><path d="M-4026.319,223.405a17.047,17.047,0,0,0,21.305,11.291,17.048,17.048,0,0,0,11.295-21.3,17.051,17.051,0,0,0-21.307-11.3A17.05,17.05,0,0,0-4026.319,223.405Z" transform="translate(4201.408 -154.898)"/><path d="M-4011.3,235.381a18.3,18.3,0,0,0,5.378-.813,18.108,18.108,0,0,0,10.758-8.889,18.111,18.111,0,0,0,1.32-13.892,18.12,18.12,0,0,0-8.89-10.759,18.106,18.106,0,0,0-13.895-1.319,18.1,18.1,0,0,0-10.756,8.89,18.118,18.118,0,0,0-1.319,13.894,18.1,18.1,0,0,0,8.888,10.756A18.144,18.144,0,0,0-4011.3,235.381Zm.047-34.12a15.785,15.785,0,0,1,7.412,1.856,15.77,15.77,0,0,1,7.738,9.364,15.765,15.765,0,0,1-1.148,12.09,15.758,15.758,0,0,1-9.364,7.737,15.769,15.769,0,0,1-12.093-1.147,15.758,15.758,0,0,1-7.736-9.361h0a15.774,15.774,0,0,1,1.148-12.094,15.76,15.76,0,0,1,9.362-7.738A15.93,15.93,0,0,1-4011.256,201.261Z" transform="translate(4202.667 -153.64)" fill="#fff"/><g transform="translate(213.089 118.817)"><path d="M-4067.3,352.939l-13.418,4.122c-1.137,21.595,15.512,29.416,15.512,29.416C-4053.608,368.691-4067.3,352.939-4067.3,352.939Z" transform="translate(4081.95 -351.757)"/><path d="M-4066.39,386.4a1.181,1.181,0,0,0,.99-.537c11.942-18.321-2.049-34.794-2.192-34.959a1.181,1.181,0,0,0-1.239-.355l-13.418,4.122a1.181,1.181,0,0,0-.833,1.067c-1.165,22.133,16.016,30.466,16.189,30.548A1.183,1.183,0,0,0-4066.39,386.4Zm-2.51-33.356c2.249,2.911,11.021,15.856,2.095,30.613-3.352-1.935-14.5-9.694-13.952-26.971Zm-.476-.589Z" transform="translate(4083.138 -350.502)" fill="#fff"/></g><g transform="translate(215.257 119.462)"><path d="M-4069.557,357.095l9.2-2.828c2.38,5.385,5.263,14.814,1.847,24.019C-4058.507,378.286-4066.983,371.709-4069.557,357.095Z" transform="translate(4070.74 -353.085)"/><path d="M-4059.732,378.214a1.177,1.177,0,0,0,.324-.046,1.18,1.18,0,0,0,.783-.725c3.627-9.775.383-19.8-1.874-24.908a1.182,1.182,0,0,0-1.428-.652l-9.2,2.828a1.181,1.181,0,0,0-.817,1.334c2.624,14.892,11.129,21.64,11.49,21.92A1.18,1.18,0,0,0-4059.732,378.214Zm-2.517-23.759c1.922,4.663,4.2,12.58,1.967,20.455a36.31,36.31,0,0,1-9.145-18.25Z" transform="translate(4071.965 -351.831)" fill="#fff"/></g><path d="M-4069.941,353.279l16.659-5.115-1.521-3.414-15.8,4.851Z" transform="translate(4282.846 -228.724)" fill="#1a1a1a"/><path d="M-4071.195,353.207a1.179,1.179,0,0,0,.347-.052l16.659-5.115a1.18,1.18,0,0,0,.729-.64,1.182,1.182,0,0,0,0-.97l-1.522-3.414a1.181,1.181,0,0,0-1.426-.649l-15.8,4.851a1.182,1.182,0,0,0-.816,1.338l.658,3.678a1.182,1.182,0,0,0,.548.8A1.184,1.184,0,0,0-4071.195,353.207Zm15.036-7.035-14.108,4.331-.239-1.335,13.794-4.236Z" transform="translate(4284.1 -227.47)" fill="#fff"/><path d="M-4067.637,342.813l-1.655-5.379a1.425,1.425,0,0,1,.945-1.78l14.91-4.577a1.426,1.426,0,0,1,1.781.945l1.647,5.376Z" transform="translate(4278.969 -221.652)"/><path d="M-4068.892,342.741a1.183,1.183,0,0,0,.347-.052l17.628-5.415a1.182,1.182,0,0,0,.783-1.475l-1.647-5.377a2.615,2.615,0,0,0-3.258-1.728l-14.909,4.577a2.609,2.609,0,0,0-1.728,3.254l1.656,5.381A1.182,1.182,0,0,0-4068.892,342.741Zm16.153-7.38-15.37,4.722-1.308-4.25a.243.243,0,0,1,.16-.3l14.912-4.578a.244.244,0,0,1,.306.166Z" transform="translate(4280.224 -220.399)" fill="#fff"/><g transform="translate(191.589 125.422)"><path d="M-4022.982,366.55l-13.415,4.119c-1.142,21.6,15.511,29.418,15.511,29.418C-4009.3,382.3-4022.982,366.55-4022.982,366.55Z" transform="translate(4037.634 -365.368)"/><path d="M-4022.074,400.015a1.181,1.181,0,0,0,.991-.537c11.937-18.321-2.051-34.793-2.194-34.957a1.181,1.181,0,0,0-1.239-.355l-13.416,4.119a1.182,1.182,0,0,0-.833,1.067c-1.17,22.135,16.016,30.468,16.19,30.549A1.181,1.181,0,0,0-4022.074,400.015Zm-2.511-33.355c2.249,2.91,11.019,15.855,2.1,30.612-3.353-1.936-14.508-9.694-13.952-26.972Z" transform="translate(4038.822 -364.114)" fill="#fff"/></g><g transform="translate(193.752 126.066)"><path d="M-4025.242,370.706l9.207-2.827c2.379,5.385,5.263,14.814,1.847,24.019C-4014.188,391.9-4022.665,385.319-4025.242,370.706Z" transform="translate(4026.423 -366.697)"/><path d="M-4015.415,391.826a1.191,1.191,0,0,0,.324-.045,1.184,1.184,0,0,0,.784-.725c3.627-9.776.383-19.8-1.875-24.908a1.181,1.181,0,0,0-1.427-.652l-9.206,2.827a1.181,1.181,0,0,0-.817,1.335c2.626,14.891,11.132,21.64,11.492,21.92A1.184,1.184,0,0,0-4015.415,391.826Zm-2.517-23.759c1.922,4.663,4.2,12.579,1.967,20.455a36.32,36.32,0,0,1-9.147-18.25Z" transform="translate(4027.65 -365.443)" fill="#fff"/></g><path d="M-4025.626,366.893l16.659-5.116-1.522-3.413-15.8,4.85Z" transform="translate(4217.028 -235.732)" fill="#1a1a1a"/><path d="M-4026.88,366.821a1.2,1.2,0,0,0,.347-.052l16.659-5.116a1.182,1.182,0,0,0,.729-.641,1.181,1.181,0,0,0,0-.97l-1.522-3.413a1.18,1.18,0,0,0-1.426-.648l-15.8,4.85a1.182,1.182,0,0,0-.817,1.338l.658,3.679a1.182,1.182,0,0,0,.548.8A1.181,1.181,0,0,0-4026.88,366.821Zm15.036-7.036-14.108,4.332-.239-1.336,13.795-4.235Z" transform="translate(4218.282 -234.478)" fill="#fff"/><path d="M-4023.329,356.42l-1.652-5.377a1.427,1.427,0,0,1,.944-1.782l14.908-4.578a1.426,1.426,0,0,1,1.781.946L-4005.7,351Z" transform="translate(4213.156 -228.657)"/><path d="M-4024.583,356.347a1.183,1.183,0,0,0,.347-.052l17.633-5.416a1.179,1.179,0,0,0,.7-.576,1.181,1.181,0,0,0,.085-.9l-1.652-5.376a2.593,2.593,0,0,0-1.276-1.541,2.579,2.579,0,0,0-1.983-.187l-14.906,4.578a2.615,2.615,0,0,0-1.728,3.256l1.653,5.38A1.182,1.182,0,0,0-4024.583,356.347Zm16.156-7.38-15.373,4.722-1.305-4.248a.243.243,0,0,1,.164-.306l14.906-4.578a.235.235,0,0,1,.183.017.244.244,0,0,1,.121.147Z" transform="translate(4214.411 -227.402)" fill="#fff"/><path d="M-3945.055,115.282a2.652,2.652,0,0,1-.043,1.567q-.149.764-.312,1.525-.337,1.587-.72,3.162c-.5,2.044-1.116,4.067-1.765,6.068-1.32,4.069-2.6,8.143-3.784,12.253-.292,1.01-.526,2.036-.821,3.044s-.575,2.52-1.747,2.852c-1.079.305-1.538-1-1.542-1.848a14.562,14.562,0,0,1,.54-3.277,115.8,115.8,0,0,1,3.866-12.22c.807-2.28,1.643-4.549,2.452-6.828.388-1.093.8-2.177,1.176-3.274q.288-.842.553-1.691a3.368,3.368,0,0,1,.786-1.69.829.829,0,0,1,1.361.359Z" transform="translate(4118.803 -110.293)" fill="#fff"/><path d="M-3954.786,181.627a6.759,6.759,0,0,1-2.821,2.027,31.1,31.1,0,0,1-3.693,1.334c-2.236.655-4.465,1.349-6.716,1.948-1.083.289-2.169.583-3.22.977a8.452,8.452,0,0,0-1.229.552c-.219.115-.433.237-.642.368-.138.087-.272.18-.408.271-.249.167.055-.063-.193.148a7.2,7.2,0,0,0-.588.555c-.161.171-.3.353-.325.382a6.858,6.858,0,0,0-.419.667,4.786,4.786,0,0,0-.219.443c.1-.239-.053.175-.064.21a6.262,6.262,0,0,0-.18.741c.056-.3-.02.224-.025.329a7.394,7.394,0,0,0,0,.771c.007.132.02.263.031.395.007.08.016.16.026.24q-.032-.232.012.064c.214,1.23.531,2.436.822,3.649.352,1.468.6,2.957.909,4.435.613,2.954,1.326,5.888,2.116,8.8,1.588,5.852,3.551,11.6,5.616,17.3,1.172,3.231,2.385,6.448,3.607,9.66.6,1.571,1.175,3.144,1.719,4.734.271.791.57,1.579.814,2.379a5.528,5.528,0,0,1,.25,1.321,2.25,2.25,0,0,0,.223,1.107c.257.49-.3,1.184-.819.819a5.611,5.611,0,0,1-1.447-1.372,13.483,13.483,0,0,1-1-2.182c-.629-1.478-1.277-2.949-1.857-4.447-1.144-2.958-2.284-5.919-3.4-8.889-2.194-5.864-4.238-11.773-6.056-17.764-.919-3.031-1.76-6.086-2.494-9.168-.364-1.526-.7-3.058-1-4.6-.268-1.372-.655-2.718-.933-4.088-.5-2.451-.515-4.947.972-7.082a11.366,11.366,0,0,1,6.142-4.061c2.461-.8,5.015-1.42,7.539-1.982,1.456-.324,2.921-.636,4.358-1.036a18.972,18.972,0,0,0,1.975-.655c.609-.244,1.248-.38,1.871-.579.8-.257,1.169.732.744,1.278Z" transform="translate(4139.576 -144.07)" fill="#fff"/><path d="M-4111.092,229.392c.738.671,1.653,1.079,2.446,1.671,1.036.772,2.123,1.477,3.218,2.161,2.58,1.613,5.174,3.208,7.737,4.849a66.226,66.226,0,0,1,7.821,5.672,19.886,19.886,0,0,1,5.226,6.316,10.278,10.278,0,0,1,1.041,4.229c.014,1.633-.332,3.738-1.786,4.694a1.241,1.241,0,0,1-1.851-1.062,5.758,5.758,0,0,1,.5-2.055,7.922,7.922,0,0,0,.238-.834c.029-.129.053-.259.077-.389.012-.064.02-.129.031-.194-.063.39-.01.08,0-.015.018-.274.035-.547.031-.822q0-.216-.02-.431c-.005-.075-.052-.48-.027-.3s-.044-.246-.056-.3c-.025-.127-.053-.254-.084-.38a7.757,7.757,0,0,0-.262-.845q-.069-.187-.146-.372c.115.277-.069-.143-.1-.21-.134-.281-.28-.557-.434-.827a15.622,15.622,0,0,0-1.047-1.578c-.019-.024-.134-.175-.021-.029-.046-.06-.093-.119-.141-.178q-.144-.179-.291-.355c-.225-.269-.456-.534-.695-.791-.5-.534-1.026-1.039-1.566-1.529-4.436-4.03-9.779-6.962-14.761-10.315-1.227-.826-2.425-1.709-3.569-2.646a10.316,10.316,0,0,1-2.13-2.649c-.244-.4.3-.781.626-.483Z" transform="translate(4333.146 -169.284)" fill="#fff"/><path d="M-3948.461,283.65a4.643,4.643,0,0,1,1.009,2.394c.23.885.509,1.755.771,2.63.535,1.787,1.19,3.54,1.823,5.294,1.3,3.6,2.772,7.152,3.863,10.829a39.543,39.543,0,0,1,1.251,5.5,4.571,4.571,0,0,1,.122,1.767,2.691,2.691,0,0,1-.969,1.208,16.8,16.8,0,0,1-1.867,1.444,21.037,21.037,0,0,1-9.234,2.947,32.627,32.627,0,0,1-5.142.2,11.874,11.874,0,0,1-2.8-.355,6.076,6.076,0,0,1-2.283-1.252,1.04,1.04,0,0,1,.455-1.722,8.282,8.282,0,0,1,2.523-.43c.872-.012,1.737.073,2.609.1q1.281.041,2.562-.017.694-.032,1.386-.093c.231-.02.462-.044.693-.069.066-.007.76-.1.381-.045a24.264,24.264,0,0,0,5.124-1.284c.205-.077.411-.152.616-.229.058-.022.66-.266.336-.127q.589-.253,1.155-.558.55-.3,1.07-.643c.045-.03.515-.373.3-.2.159-.127.308-.268.456-.406l-.461,1.114c-.8-7.553-4.617-14.347-6.338-21.68a29.451,29.451,0,0,1-.542-3.127c-.12-.971-.353-2.237.248-3.075a.576.576,0,0,1,.888-.114Z" transform="translate(4116.552 -197.188)" fill="#fff"/><path d="M-4001.524,215.516c-1.4.315-3.007-.384-4.246-.985-1.441-.7-2.833-1.507-4.219-2.308-1.422-.822-2.833-1.661-4.264-2.466-.7-.4-1.382-.82-2.071-1.24a5.431,5.431,0,0,1-1.9-1.516.469.469,0,0,1,.278-.684,4.315,4.315,0,0,1,2.222.526,25.077,25.077,0,0,1,2.266,1.119c1.424.82,2.826,1.675,4.238,2.517,1.379.822,2.766,1.632,4.189,2.374a10.589,10.589,0,0,1,3.588,2.467.134.134,0,0,1-.08.2Z" transform="translate(4205.603 -157.449)" fill="#fff"/><path d="M-3998.71,220.261a16.215,16.215,0,0,1-4.462-1.9c-1.53-.9-3.037-1.842-4.522-2.811a51.29,51.29,0,0,0-9.061-5,19.669,19.669,0,0,0-2.566-.827c-.845-.206-2.086-.665-1.606-1.741a.92.92,0,0,1,.789-.453,9.916,9.916,0,0,1,4.5,1.051,35.934,35.934,0,0,1,4.542,2.293c2.928,1.72,5.664,3.706,8.429,5.669a38.371,38.371,0,0,1,4.185,3.33.234.234,0,0,1-.227.389Z" transform="translate(4203.928 -158.072)" fill="#fff"/><path d="M-3998.333,227.333c-.812-.192-1.641-.242-2.448-.472a21.85,21.85,0,0,1-2.5-.911,47.308,47.308,0,0,1-4.8-2.484c-3.2-1.8-6.322-3.746-9.467-5.644-.872-.526-1.771-1.021-2.6-1.618-.676-.488-1.7-1.15-1.794-2.042a.479.479,0,0,1,.247-.431,2.9,2.9,0,0,1,2.217.364,15.455,15.455,0,0,1,2.363,1.294c1.533.951,3.056,1.916,4.585,2.873,3.1,1.944,6.229,3.841,9.472,5.544.854.448,1.7.929,2.522,1.438s1.577,1.132,2.419,1.573c.292.153.086.588-.218.517Z" transform="translate(4203.93 -161.215)" fill="#fff"/><path d="M-3996.006,234.14a6.2,6.2,0,0,1-2.736-.389,23.352,23.352,0,0,1-2.724-1.074c-1.793-.857-3.52-1.861-5.218-2.891-3.431-2.081-6.738-4.365-10.2-6.391-.958-.56-1.928-1.1-2.917-1.6-.97-.494-2.171-.908-2.469-2.08a.611.611,0,0,1,.275-.676,2.94,2.94,0,0,1,2.811.32c.871.427,1.728.883,2.573,1.358,1.755.987,3.46,2.059,5.152,3.15,3.359,2.166,6.617,4.488,10.134,6.4.927.5,1.851,1.017,2.789,1.5a10.681,10.681,0,0,1,2.722,1.652.436.436,0,0,1-.191.722Z" transform="translate(4201.82 -163.88)" fill="#fff"/></svg>