<svg version="1.2" xmlns="http://www.w3.org/2000/svg" viewBox="0 0 47 40" width="47" height="40"><defs><linearGradient id="P" gradientUnits="userSpaceOnUse"/><linearGradient id="g1" x1="2.1" y1="36.7" x2="5" y2="36.7" href="#P"><stop stop-color="#377aa8"/><stop offset="1" stop-color="#3b7ca8"/></linearGradient><linearGradient id="g2" x1="11.2" y1="36.7" x2="14.8" y2="36.7" href="#P"><stop stop-color="#327da0"/><stop offset="1" stop-color="#357ba5"/></linearGradient><linearGradient id="g3" x1="20.3" y1="36.8" x2="25.2" y2="36.8" href="#P"><stop stop-color="#307e9d"/><stop offset="1" stop-color="#26858c"/></linearGradient><linearGradient id="g4" x1="30.6" y1="36.8" x2="34" y2="36.8" href="#P"><stop stop-color="#12946a"/><stop offset="1" stop-color="#1e8b7e"/></linearGradient></defs><style>.a{fill:#fff}.b{fill:url(#g1)}.c{fill:url(#g2)}.d{fill:url(#g3)}.e{fill:url(#g4)}.f{fill:#ff6700;stroke:#f3bc18;stroke-width:.5}</style><path class="a" d="m36.2 39.6h-7.8v-22.9h7.8v3.3z"/><path class="a" d="m47 39.6h-9l-0.1-18v-12.4h9l0.1 4.8v3.8z"/><path class="a" d="m18.7 21.9h8v1.6 3.6 12.5h-8v-9.4-2.5-3.6-0.6-1.4z"/><path class="a" d="m17 29.7v2 7.9h-8v-12.1h8v1.6z"/><path class="a" d="m0 30h7.1v9.6h-7.1z"/><path class="b" d="m4.1 34.5h0.9v3.1q0 0.1 0 0.2 0 0.1 0 0.2 0 0.1-0.1 0.2 0 0-0.1 0.1 0 0.1-0.1 0.2 0 0-0.1 0.1-0.1 0.1-0.1 0.1-0.1 0.1-0.2 0.1-0.1 0.1-0.2 0.1-0.1 0-0.2 0-0.1 0.1-0.2 0.1-0.1 0-0.2 0-0.1 0-0.2 0-0.1 0-0.2 0 0-0.1-0.1-0.1-0.1 0-0.2-0.1-0.1 0-0.2 0 0-0.1-0.1-0.1-0.1-0.1-0.1-0.2-0.1 0-0.1-0.1-0.1-0.1-0.1-0.2 0 0-0.1-0.1 0-0.1 0-0.2 0-0.1 0-0.2h0.9q0 0 0 0.1 0 0 0 0 0 0.1 0.1 0.1 0 0 0 0.1 0 0 0 0 0 0.1 0.1 0.1 0 0 0 0 0 0.1 0.1 0.1 0 0 0 0 0.1 0 0.1 0 0.1 0 0.1 0 0 0 0.1 0 0 0 0 0 0.1 0 0.1 0 0.1 0 0.1 0 0 0 0.1 0 0-0.1 0-0.1 0 0 0.1 0 0-0.1 0-0.1 0 0 0-0.1 0.1 0 0.1 0 0-0.1 0-0.1 0-0.1 0-0.1 0-0.1 0-0.1z"/><path class="c" d="m13.9 34.5h0.9v2.8q0 0.2 0 0.3 0 0.1 0 0.2-0.1 0.1-0.1 0.2 0 0.1-0.1 0.2-0.1 0.1-0.1 0.2-0.1 0-0.2 0.1-0.1 0.1-0.2 0.1 0 0.1-0.1 0.1-0.2 0.1-0.3 0.1-0.1 0.1-0.2 0.1-0.1 0-0.3 0-0.1 0.1-0.2 0-0.1 0.1-0.2 0-0.2 0-0.3 0-0.1 0-0.2-0.1-0.2 0-0.3-0.1-0.1 0-0.2-0.1 0 0-0.1-0.1-0.1-0.1-0.2-0.1 0-0.1-0.1-0.2-0.1-0.1-0.1-0.2-0.1-0.1-0.1-0.2 0-0.1 0-0.2 0-0.1 0-0.3v-2.8h0.9v2.8q0 0 0 0.1 0 0 0 0.1 0 0 0.1 0.1 0 0.1 0 0.1 0 0.1 0.1 0.1 0 0 0 0.1 0.1 0 0.1 0.1 0.1 0 0.1 0 0.1 0 0.1 0.1 0.1 0 0.2 0 0 0 0.1 0 0 0 0.1 0 0.1 0 0.1 0 0.1 0 0.1 0 0.1 0 0.2 0 0-0.1 0.1-0.1 0 0 0.1 0 0-0.1 0-0.1 0.1-0.1 0.1-0.1 0.1 0 0.1-0.1 0 0 0-0.1 0.1-0.1 0.1-0.1 0-0.1 0-0.1 0-0.1 0-0.1z"/><path class="d" d="m20.3 34.5h1.1l1.3 3 1.3-3h1.2v4.5h-1v-2.9l-1.2 2.9h-0.6l-1.2-2.9v2.9h-0.9z"/><path class="e" d="m30.6 39v-4.5h1.8q0.1 0 0.2 0 0.1 0.1 0.2 0.1 0.1 0 0.2 0 0.2 0.1 0.3 0.1 0 0.1 0.1 0.1 0.1 0.1 0.2 0.2 0 0 0.1 0.1 0 0.1 0.1 0.2 0 0.1 0.1 0.2 0 0 0 0.1 0.1 0.1 0.1 0.2 0 0.1 0 0.3 0 0.1 0 0.2 0 0.1-0.1 0.2 0 0.1 0 0.2-0.1 0-0.1 0.1-0.1 0.1-0.1 0.2-0.1 0.1-0.1 0.1-0.1 0.1-0.2 0.2-0.1 0-0.2 0.1-0.1 0-0.2 0.1-0.1 0-0.2 0-0.1 0-0.2 0-0.1 0.1-0.2 0.1h-1.2v-0.8h1q0.1 0 0.1 0 0.1 0 0.1 0 0.1 0 0.2-0.1 0 0 0.1 0 0 0 0 0 0.1-0.1 0.1-0.1 0 0 0.1-0.1 0 0 0-0.1 0 0 0.1-0.1 0 0 0 0 0-0.1 0-0.1 0-0.1 0-0.1 0-0.1 0-0.1 0-0.1 0-0.1 0-0.1 0-0.1-0.1-0.1-0.1-0.1 0-0.1 0-0.1-0.1-0.1-0.1-0.1 0 0-0.1 0 0-0.1 0-0.1-0.1 0-0.1 0-0.1-0.1-0.2-0.1 0 0-0.1 0 0 0-0.1 0h-0.6v3.7z"/><path class="a" d="m41.5 0l-7 2.2 2 1.9-6.7 7.5-2.5-2.6-0.5-0.5-0.4 0.4-10.2 10.1-3.4-3.6-0.2-0.2-0.2 0.2-12.2 12.1 12.4-11.5 3.3 3.9 0.3 0.3 0.3-0.3 10.3-9.5 2.5 2.8 0.5 0.6 0.6-0.6 7.5-7.8 2 1.8z"/><path class="a" d="m32.9 14.7l5-5.5v5.5z"/><path class="f" d="m39.1 35.3v-0.3h2.6v0.3h-1.2v3.3h-0.3v-3.3z"/><path fill-rule="evenodd" class="f" d="m45.8 36.8q0 0.1 0 0.2 0 0.1 0 0.3 0 0.1-0.1 0.2 0 0.1-0.1 0.2 0 0.1-0.1 0.2 0 0.1-0.1 0.2-0.1 0.1-0.1 0.2-0.1 0-0.2 0.1-0.1 0-0.2 0.1-0.1 0-0.2 0.1-0.1 0-0.2 0-0.1 0-0.2 0-0.1 0-0.2 0-0.1 0-0.2 0-0.1-0.1-0.2-0.1-0.1-0.1-0.2-0.1-0.1-0.1-0.2-0.1-0.1-0.1-0.1-0.2-0.1-0.1-0.2-0.2 0-0.1-0.1-0.2 0-0.1-0.1-0.2 0-0.1 0-0.2 0-0.2-0.1-0.3 0-0.1 0-0.2 0-0.2 0-0.3 0.1-0.1 0.1-0.2 0-0.2 0-0.3 0.1-0.1 0.1-0.2 0.1-0.1 0.1-0.2 0.1-0.1 0.2-0.2 0 0 0.1-0.1 0.1-0.1 0.2-0.1 0.1-0.1 0.2-0.1 0.1-0.1 0.2-0.1 0.1 0 0.2-0.1 0.1 0 0.2 0 0.1 0 0.2 0 0.1 0.1 0.2 0.1 0.1 0 0.2 0.1 0.1 0 0.2 0.1 0.1 0 0.2 0.1 0 0.1 0.1 0.1 0.1 0.1 0.1 0.2 0.1 0.1 0.1 0.2 0.1 0.1 0.1 0.2 0.1 0.1 0.1 0.3 0 0.1 0 0.2 0 0.1 0 0.3zm-0.3 0q0-0.1 0-0.2 0-0.1 0-0.3 0-0.1-0.1-0.2 0-0.1 0-0.2-0.1 0-0.1-0.1-0.1-0.1-0.1-0.2-0.1 0-0.1-0.1-0.1 0-0.2-0.1 0 0-0.1-0.1-0.1 0-0.2 0-0.1 0-0.1-0.1-0.1 0-0.2 0-0.1 0-0.2 0-0.1 0.1-0.1 0.1-0.1 0-0.2 0-0.1 0.1-0.1 0.1-0.1 0.1-0.2 0.1 0 0.1-0.1 0.2-0.1 0-0.1 0.1 0 0.1-0.1 0.1 0 0.1-0.1 0.2 0 0.1 0 0.3 0 0.1 0 0.2 0 0.1 0 0.2 0 0.1 0 0.2 0 0.1 0 0.2 0 0.1 0 0.2 0.1 0.1 0.1 0.2 0.1 0.1 0.1 0.2 0 0 0.1 0.1 0.1 0.1 0.1 0.1 0.1 0.1 0.2 0.1 0 0.1 0.1 0.1 0.1 0 0.2 0.1 0 0 0.1 0 0.1 0 0.2 0 0.1 0 0.2 0 0 0 0.1 0 0.1-0.1 0.2-0.1 0.1 0 0.1-0.1 0.1 0 0.2-0.1 0 0 0.1-0.1 0-0.1 0.1-0.1 0-0.1 0.1-0.2 0-0.1 0-0.2 0.1-0.1 0.1-0.2 0-0.1 0-0.2 0-0.1 0-0.2z"/></svg>