<svg xmlns="http://www.w3.org/2000/svg" width="14.151" height="17.298" viewBox="0 0 14.151 17.298"><g transform="translate(-2077.865 -13759)"><path d="M152.452,233.52h-2.44a.49.49,0,0,0-.492.492v1.475a.49.49,0,0,0,.492.492h2.44a.49.49,0,0,0,.492-.492v-1.475A.49.49,0,0,0,152.452,233.52Z" transform="translate(1928.902 13532.618)" fill="#fff"/><path d="M152.452,351.68h-2.44a.49.49,0,0,0-.492.492v1.475a.49.49,0,0,0,.492.492h2.44a.49.49,0,0,0,.492-.492v-1.475A.49.49,0,0,0,152.452,351.68Z" transform="translate(1928.902 13418.301)" fill="#fff"/><path d="M152.452,470.4h-2.44a.49.49,0,0,0-.492.492v1.475a.49.49,0,0,0,.492.492h2.44a.49.49,0,0,0,.492-.492v-1.475A.49.49,0,0,0,152.452,470.4Z" transform="translate(1928.902 13303.44)" fill="#fff"/><path d="M300.292,233.52h-2.44a.49.49,0,0,0-.492.492v1.475a.49.49,0,0,0,.492.492h2.44a.49.49,0,0,0,.492-.492v-1.475A.49.49,0,0,0,300.292,233.52Z" transform="translate(1785.869 13532.618)" fill="#fff"/><path d="M300.292,351.68h-2.44a.49.49,0,0,0-.492.492v1.475a.49.49,0,0,0,.492.492h2.44a.49.49,0,0,0,.492-.492v-1.475A.49.49,0,0,0,300.292,351.68Z" transform="translate(1785.869 13418.301)" fill="#fff"/><path d="M300.292,470.4h-2.44a.49.49,0,0,0-.492.492v1.475a.49.49,0,0,0,.492.492h2.44a.49.49,0,0,0,.492-.492v-1.475A.49.49,0,0,0,300.292,470.4Z" transform="translate(1785.869 13303.44)" fill="#fff"/><path d="M448.132,233.52h-2.44a.49.49,0,0,0-.492.492v1.475a.49.49,0,0,0,.492.492h2.44a.49.49,0,0,0,.492-.492v-1.475A.49.49,0,0,0,448.132,233.52Z" transform="translate(1642.837 13532.618)" fill="#fff"/><path d="M448.132,351.68h-2.44a.49.49,0,0,0-.492.492v1.475a.49.49,0,0,0,.492.492h2.44a.49.49,0,0,0,.492-.492v-1.475A.49.49,0,0,0,448.132,351.68Z" transform="translate(1642.837 13418.301)" fill="#fff"/><path d="M448.132,470.4h-2.44a.49.49,0,0,0-.492.492v1.475a.49.49,0,0,0,.492.492h2.44a.49.49,0,0,0,.492-.492v-1.475A.49.49,0,0,0,448.132,470.4Z" transform="translate(1642.837 13303.44)" fill="#fff"/><path d="M146.155,16.2a7.586,7.586,0,0,0-1.093-.838A11.342,11.342,0,0,0,139.472,14a11.155,11.155,0,0,0-5.59,1.384,7.6,7.6,0,0,0-1.093.838,1.141,1.141,0,0,0-.364,1.129l.437,2a.6.6,0,0,0,.747.437l2.932-.929a.572.572,0,0,0,.4-.619l-.218-1.6a8.966,8.966,0,0,1,2.75-.419,8.682,8.682,0,0,1,2.786.437l-.2,1.566a.561.561,0,0,0,.4.619l2.914.929a.576.576,0,0,0,.747-.437l.4-2a1.141,1.141,0,0,0-.364-1.129Z" transform="translate(1945.469 13745)" fill="#fff"/></g></svg>