<svg xmlns="http://www.w3.org/2000/svg" xmlns:xlink="http://www.w3.org/1999/xlink" width="92.836" height="35.396" viewBox="0 0 92.836 35.396"><defs><linearGradient id="a" y1="0.591" x2="1" y2="0.61" gradientUnits="objectBoundingBox"><stop offset="0" stop-color="#13a874"/><stop offset="1" stop-color="#0a543a"/></linearGradient></defs><g transform="translate(0 2)"><path d="M277.586,221.236l1.622,4.991a.246.246,0,0,0,.234.17h5.248a.246.246,0,0,1,.145.445l-4.246,3.084a.246.246,0,0,0-.089.275l1.621,4.991a.246.246,0,0,1-.379.275l-4.246-3.085a.246.246,0,0,0-.289,0l-4.246,3.085a.246.246,0,0,1-.379-.275L274.2,230.2a.246.246,0,0,0-.089-.275l-4.246-3.084a.246.246,0,0,1,.145-.445h5.248a.246.246,0,0,0,.234-.17l1.621-4.991A.246.246,0,0,1,277.586,221.236Z" transform="translate(-269.768 -202.119)" fill="#fbc725"/><path d="M277.586,221.236l1.622,4.991a.246.246,0,0,0,.234.17h5.248a.246.246,0,0,1,.145.445l-4.246,3.084a.246.246,0,0,0-.089.275l1.621,4.991a.246.246,0,0,1-.379.275l-4.246-3.085a.246.246,0,0,0-.289,0l-4.246,3.085a.246.246,0,0,1-.379-.275L274.2,230.2a.246.246,0,0,0-.089-.275l-4.246-3.084a.246.246,0,0,1,.145-.445h5.248a.246.246,0,0,0,.234-.17l1.621-4.991A.246.246,0,0,1,277.586,221.236Z" transform="translate(-250.351 -202.119)" fill="#fbc725"/><path d="M277.586,221.236l1.622,4.991a.246.246,0,0,0,.234.17h5.248a.246.246,0,0,1,.145.445l-4.246,3.084a.246.246,0,0,0-.089.275l1.621,4.991a.246.246,0,0,1-.379.275l-4.246-3.085a.246.246,0,0,0-.289,0l-4.246,3.085a.246.246,0,0,1-.379-.275L274.2,230.2a.246.246,0,0,0-.089-.275l-4.246-3.084a.246.246,0,0,1,.145-.445h5.248a.246.246,0,0,0,.234-.17l1.621-4.991A.246.246,0,0,1,277.586,221.236Z" transform="translate(-230.934 -202.119)" fill="#fbc725"/><path d="M277.586,221.236l1.622,4.991a.246.246,0,0,0,.234.17h5.248a.246.246,0,0,1,.145.445l-4.246,3.084a.246.246,0,0,0-.089.275l1.621,4.991a.246.246,0,0,1-.379.275l-4.246-3.085a.246.246,0,0,0-.289,0l-4.246,3.085a.246.246,0,0,1-.379-.275L274.2,230.2a.246.246,0,0,0-.089-.275l-4.246-3.084a.246.246,0,0,1,.145-.445h5.248a.246.246,0,0,0,.234-.17l1.621-4.991A.246.246,0,0,1,277.586,221.236Z" transform="translate(-211.517 -202.119)" fill="#fbc725"/><path d="M277.586,221.236l1.622,4.991a.246.246,0,0,0,.234.17h5.248a.246.246,0,0,1,.145.445l-4.246,3.084a.246.246,0,0,0-.089.275l1.621,4.991a.246.246,0,0,1-.379.275l-4.246-3.085a.246.246,0,0,0-.289,0l-4.246,3.085a.246.246,0,0,1-.379-.275L274.2,230.2a.246.246,0,0,0-.089-.275l-4.246-3.084a.246.246,0,0,1,.145-.445h5.248a.246.246,0,0,0,.234-.17l1.621-4.991A.246.246,0,0,1,277.586,221.236Z" transform="translate(-192.1 -202.119)" fill="#fbc725"/><path d="M1155.859,800.982v13.393h39.928l-4.241-6.324,4.241-7.069Z" transform="translate(-1132.19 -800.205)" fill="url(#a)"/><text transform="translate(0.062 11)" font-size="12" font-family="SegoeUI-Bold, Segoe UI" font-weight="700"><tspan x="0" y="0">4.9</tspan></text><text transform="translate(28.023 8.883)" fill="#fff" font-size="5" font-family="SegoeUI-Bold, Segoe UI" font-weight="700"><tspan x="0" y="0">TOP PRO</tspan></text></g></svg>