<svg xmlns="http://www.w3.org/2000/svg" xmlns:xlink="http://www.w3.org/1999/xlink" width="19.282" height="21.708" viewBox="0 0 19.282 21.708"><defs><linearGradient id="a" x1="0.5" y1="-0.313" x2="0.5" y2="1.135" gradientUnits="objectBoundingBox"><stop offset="0" stop-color="#d00202"/><stop offset="1" stop-color="#680101"/></linearGradient></defs><g transform="translate(0)"><path d="M1942.708,1352.008a6.048,6.048,0,0,1-4.077,1.542,5.873,5.873,0,0,1-6.06-6.17,5.784,5.784,0,0,1,6.06-6.06,5.56,5.56,0,0,1,4.077,1.543l.771.661,3.306-3.306-.771-.771a11.454,11.454,0,0,0-7.382-2.865,10.383,10.383,0,0,0-10.908,10.8,10.726,10.726,0,0,0,10.908,10.908,11.245,11.245,0,0,0,7.6-2.865l.771-.771-3.526-3.526Z" transform="translate(-1927.723 -1336.58)" fill="url(#a)"/></g><circle cx="3.636" cy="3.636" r="3.636" transform="translate(7.052 7.274)" fill="url(#a)"/></svg>