<svg xmlns="http://www.w3.org/2000/svg" width="40" height="40" viewBox="0 0 40 40"><g transform="translate(-1247 -5429)"><path d="M1247,5449a20,20,0,0,1,20-20h0a20,20,0,0,1,20,20h0a20,20,0,0,1-20,20h0a20,20,0,0,1-20-20Z" fill="#fff"/><path d="M1277,5442.93a8.228,8.228,0,0,1-2.36.634,4.088,4.088,0,0,0,1.8-2.259,8.094,8.094,0,0,1-2.6.99,4.1,4.1,0,0,0-7.093,2.8,4.7,4.7,0,0,0,.1.94,11.649,11.649,0,0,1-8.451-4.29,4.111,4.111,0,0,0,1.269,5.485,4.142,4.142,0,0,1-1.853-.521v.05a4.1,4.1,0,0,0,3.286,4.023,4.326,4.326,0,0,1-1.079.139,5.439,5.439,0,0,1-.774-.062,4.106,4.106,0,0,0,3.831,2.844,8.215,8.215,0,0,1-5.088,1.752,8.357,8.357,0,0,1-.99-.05,11.67,11.67,0,0,0,17.957-9.826c0-.178,0-.356-.012-.534A8.829,8.829,0,0,0,1277,5442.93Z" fill="#192229"/></g></svg>